<svg version="1.2" xmlns="http://www.w3.org/2000/svg" viewBox="0 0 24 17" width="24" height="17">
	<title>india-flag-svg</title>
	<defs>
		<clipPath clipPathUnits="userSpaceOnUse" id="cp1">
			<path d="m0.07 0h24v17.51h-24z"/>
		</clipPath>
	</defs>
	<style>
		.s0 { fill: #f76003 } 
		.s1 { fill: #ffffff } 
		.s2 { fill: #007800 } 
		.s3 { fill: #000088 } 
	</style>
	<g id="Clip-Path" clip-path="url(#cp1)">
		<g id="Layer">
			<path id="Layer" class="s0" d="m24.1 0h-24v17.5h24z"/>
			<path id="Layer" class="s1" d="m24.1 5.8h-24v5.9h24z"/>
			<path id="Layer" class="s2" d="m24.1 11.7h-24v5.8h24z"/>
			<path id="Layer" class="s3" d="m12.1 11.1c1.2 0 2.1-1.1 2.1-2.3 0-1.3-0.9-2.4-2.1-2.4-1.2 0-2.2 1.1-2.2 2.4 0 1.2 1 2.3 2.2 2.3z"/>
			<path id="Layer" class="s1" d="m12.1 10.8c1 0 1.8-0.9 1.8-2 0-1.2-0.8-2.1-1.8-2.1-1.1 0-1.9 0.9-1.9 2.1 0 1.1 0.8 2 1.9 2z"/>
			<path id="Layer" class="s3" d="m12.1 9.2c0.2 0 0.3-0.2 0.3-0.4 0-0.3-0.1-0.5-0.3-0.5-0.2 0-0.4 0.2-0.4 0.5 0 0.2 0.2 0.4 0.4 0.4z"/>
			<path id="Layer" class="s3" d="m13.9 9.1q0.1 0 0.1-0.1 0-0.1-0.1-0.1-0.1 0-0.1 0.1 0 0.1 0.1 0.1z"/>
			<path id="Layer" class="s3" d="m12.1 10.8v-1.2-0.6l-0.1 0.6z"/>
			<path id="Layer" class="s3" d="m13.8 9.6q0.1 0 0.1-0.1 0-0.1-0.1-0.1-0.1 0-0.1 0.1 0 0.1 0.1 0.1z"/>
			<path id="Layer" class="s3" d="m11.6 10.7l0.3-1.1 0.1-0.6-0.2 0.5z"/>
			<path id="Layer" class="s3" d="m13.6 10.1q0 0 0-0.1 0-0.1 0-0.1-0.1 0-0.1 0.1 0 0.1 0.1 0.1z"/>
			<path id="Layer" class="s3" d="m11.1 10.5l0.7-1 0.2-0.5-0.4 0.4z"/>
			<path id="Layer" class="s3" d="m13.2 10.5q0.1 0 0.1-0.1 0-0.1-0.1-0.1-0.1 0-0.1 0.1 0 0.1 0.1 0.1z"/>
			<path id="Layer" class="s3" d="m10.8 10.2l0.8-0.8 0.3-0.5-0.4 0.4z"/>
			<path id="Layer" class="s3" d="m12.8 10.7q0.1 0 0.1-0.1 0 0-0.1-0.1-0.1 0.1-0.1 0.1 0 0.1 0.1 0.1z"/>
			<path id="Layer" class="s3" d="m10.5 9.8l1-0.6 0.4-0.3-0.5 0.2z"/>
			<path id="Layer" class="s3" d="m12.3 10.9q0.1 0 0.1-0.1 0-0.1-0.1-0.1-0.1 0-0.1 0.1 0 0.1 0.1 0.1z"/>
			<path id="Layer" class="s3" d="m10.3 9.3l1.1-0.3 0.5-0.2-0.6 0.1z"/>
			<path id="Layer" class="s3" d="m11.8 10.9q0.1 0 0.1-0.1 0-0.1-0.1-0.1-0.1 0-0.1 0.1 0 0.1 0.1 0.1z"/>
			<path id="Layer" class="s3" d="m10.2 8.8h1.1 0.6l-0.6-0.1z"/>
			<path id="Layer" class="s3" d="m11.4 10.7q0 0 0.1-0.1-0.1 0-0.1-0.1-0.1 0.1-0.1 0.1 0 0.1 0.1 0.1z"/>
			<path id="Layer" class="s3" d="m10.3 8.2l1 0.4 0.6 0.1-0.5-0.2z"/>
			<path id="Layer" class="s3" d="m10.9 10.5q0.1 0 0.1-0.1 0-0.1-0.1-0.1 0 0-0.1 0.1 0.1 0.1 0.1 0.1z"/>
			<path id="Layer" class="s3" d="m10.5 7.7l0.9 0.7 0.5 0.2-0.4-0.3z"/>
			<path id="Layer" class="s3" d="m10.6 10.1q0.1 0 0.1-0.1 0-0.1-0.1-0.1-0.1 0-0.1 0.1 0 0.1 0.1 0.1z"/>
			<path id="Layer" class="s3" d="m10.8 7.3l0.7 0.9 0.4 0.4-0.3-0.5z"/>
			<path id="Layer" class="s3" d="m10.3 9.6q0.1 0 0.1-0.1 0-0.1-0.1-0.1 0 0 0 0.1 0 0.1 0 0.1z"/>
			<path id="Layer" class="s3" d="m11.1 7l0.5 1.1 0.4 0.5-0.2-0.6z"/>
			<path id="Layer" class="s3" d="m10.2 9.1q0.1 0 0.1-0.1 0-0.1-0.1-0.1-0.1 0-0.1 0.1 0 0.1 0.1 0.1z"/>
			<path id="Layer" class="s3" d="m11.6 6.8l0.2 1.2 0.2 0.5-0.1-0.6z"/>
			<path id="Layer" class="s3" d="m10.2 8.6q0.1 0 0.1-0.1 0-0.1-0.1-0.1-0.1 0-0.1 0.1 0 0.1 0.1 0.1z"/>
			<path id="Layer" class="s3" d="m12.1 6.7l-0.1 1.2 0.1 0.6v-0.6z"/>
			<path id="Layer" class="s3" d="m10.3 8.1q0.1 0 0.1-0.1 0-0.1-0.1-0.1 0 0 0 0.1 0 0.1 0 0.1z"/>
			<path id="Layer" class="s3" d="m12.6 6.8l-0.4 1.1-0.1 0.6 0.2-0.5z"/>
			<path id="Layer" class="s3" d="m10.6 7.6q0.1 0 0.1-0.1 0-0.1-0.1-0.1-0.1 0-0.1 0.1 0 0.1 0.1 0.1z"/>
			<path id="Layer" class="s3" d="m13 7l-0.6 1-0.2 0.6 0.3-0.5z"/>
			<path id="Layer" class="s3" d="m10.9 7.2q0.1 0 0.1-0.1 0-0.1-0.1-0.1 0 0-0.1 0.1 0.1 0.1 0.1 0.1z"/>
			<path id="Layer" class="s3" d="m13.4 7.3l-0.8 0.8-0.4 0.5 0.4-0.4z"/>
			<path id="Layer" class="s3" d="m11.4 7q0 0 0.1-0.1-0.1-0.1-0.1-0.1-0.1 0-0.1 0.1 0 0.1 0.1 0.1z"/>
			<path id="Layer" class="s3" d="m13.7 7.7l-1 0.6-0.4 0.3 0.5-0.2z"/>
			<path id="Layer" class="s3" d="m11.8 6.8q0.1 0 0.1-0.1 0-0.1-0.1-0.1-0.1 0-0.1 0.1 0 0.1 0.1 0.1z"/>
			<path id="Layer" class="s3" d="m13.9 8.2l-1.1 0.3-0.5 0.2 0.5-0.1z"/>
			<path id="Layer" class="s3" d="m12.3 6.8q0.1 0 0.1-0.1 0-0.1-0.1-0.1-0.1 0-0.1 0.1 0 0.1 0.1 0.1z"/>
			<path id="Layer" class="s3" d="m13.9 8.8l-1.1-0.1-0.5 0.1h0.5z"/>
			<path id="Layer" class="s3" d="m12.8 7q0.1 0 0.1-0.1 0-0.1-0.1-0.1-0.1 0-0.1 0.1 0 0.1 0.1 0.1z"/>
			<path id="Layer" class="s3" d="m13.9 9.3l-1.1-0.4-0.5-0.1 0.5 0.2z"/>
			<path id="Layer" class="s3" d="m13.2 7.2q0.1 0 0.1-0.1 0-0.1-0.1-0.1-0.1 0-0.1 0.1 0 0.1 0.1 0.1z"/>
			<path id="Layer" class="s3" d="m13.7 9.8l-0.9-0.7-0.5-0.2 0.4 0.3z"/>
			<path id="Layer" class="s3" d="m13.6 7.6q0 0 0-0.1 0-0.1 0-0.1-0.1 0-0.1 0.1 0 0.1 0.1 0.1z"/>
			<path id="Layer" class="s3" d="m13.4 10.2l-0.8-0.9-0.4-0.4 0.4 0.5z"/>
			<path id="Layer" class="s3" d="m13.8 8.1q0.1 0 0.1-0.1 0-0.1-0.1-0.1-0.1 0-0.1 0.1 0 0.1 0.1 0.1z"/>
			<path id="Layer" class="s3" d="m13 10.5l-0.5-1.1-0.3-0.4 0.2 0.5z"/>
			<path id="Layer" class="s3" d="m13.9 8.6q0.1 0 0.1-0.1 0-0.1-0.1-0.1-0.1 0-0.1 0.1 0 0.1 0.1 0.1z"/>
			<path id="Layer" class="s3" d="m12.6 10.7l-0.3-1.2-0.2-0.5 0.1 0.6z"/>
		</g>
	</g>
</svg>