<svg width="96" height="34" viewBox="0 0 96 34" fill="none" xmlns="http://www.w3.org/2000/svg">
<path d="M15.0279 1.54643C11.467 1.10196 4.27099 3.76875 1.1181 5.15771C-1.77514 21.1584 9.18579 30.5293 15.0279 33.2146C28.3813 28.1032 29.8651 12.7507 28.9377 5.7133C23.9302 2.65761 19.4791 2.10201 15.0279 1.54643Z" fill="#61BE7D"/>
<path d="M28.9411 5.71375C23.9335 2.65806 19.4824 2.10246 15.0312 1.54688V33.215C28.3847 28.1037 29.8684 12.7511 28.9411 5.71375Z" fill="#56AA6F"/>
<path d="M17.8119 31.8261L7.79688 21.8256L13.0826 11.5474H21.7067L28.3834 16.2698C26.6029 26.048 20.5939 30.7149 17.8119 31.8261Z" fill="#4C9964"/>
<path fill-rule="evenodd" clip-rule="evenodd" d="M15.0331 9.99013C15.9529 9.99013 16.7151 10.6652 16.8512 11.5469H13.2149C13.351 10.6652 14.1132 9.99013 15.0331 9.99013ZM10.1886 11.5469H11.4274C11.5718 9.68184 13.1309 8.21338 15.0331 8.21338C16.9352 8.21338 18.4943 9.68184 18.6387 11.5469H19.8809C21.3528 11.5469 22.546 12.7402 22.546 14.2121V19.9935C22.546 21.4654 21.3528 22.6586 19.8809 22.6586H10.1886C8.71665 22.6586 7.52344 21.4654 7.52344 19.9935V14.2121C7.52344 12.7402 8.71665 11.5469 10.1886 11.5469ZM15.3145 18.2142C15.929 18.2142 16.4273 17.7167 16.4273 17.103C16.4273 16.4894 15.929 15.9919 15.3145 15.9919C14.6999 15.9919 14.2017 16.4894 14.2017 17.103C14.2017 17.7167 14.6999 18.2142 15.3145 18.2142Z" fill="white"/>
<path d="M33.5705 5.66943C34.2219 5.66943 34.7194 5.81157 35.0629 6.09585C35.4124 6.37421 35.5871 6.80359 35.5871 7.38399V10.6177H34.6632L34.4055 9.96028H34.37C34.1627 10.2209 33.9436 10.4104 33.7126 10.5288C33.4816 10.6473 33.1648 10.7065 32.762 10.7065C32.3297 10.7065 31.9714 10.5821 31.6871 10.3334C31.4028 10.0787 31.2607 9.6908 31.2607 9.16963C31.2607 8.65437 31.4413 8.27533 31.8026 8.03251C32.1639 7.78376 32.7058 7.64754 33.4283 7.62385L34.2723 7.5972V7.38399C34.2723 7.12932 34.2042 6.94277 34.0679 6.82432C33.9377 6.70587 33.7541 6.64664 33.5172 6.64664C33.2803 6.64664 33.0493 6.68218 32.8242 6.75325C32.5992 6.81839 32.3741 6.90131 32.1491 7.00199L31.7138 6.10473C31.9743 5.96852 32.2616 5.86191 32.5755 5.78492C32.8953 5.70793 33.227 5.66943 33.5705 5.66943ZM33.757 8.38786C33.3306 8.3997 33.0345 8.47669 32.8686 8.61883C32.7028 8.76097 32.6199 8.94753 32.6199 9.17851C32.6199 9.37987 32.6791 9.52497 32.7976 9.61381C32.916 9.69673 33.07 9.73818 33.2595 9.73818C33.5438 9.73818 33.7837 9.65527 33.9791 9.48944C34.1746 9.31769 34.2723 9.07783 34.2723 8.76986V8.37009L33.757 8.38786ZM39.6959 5.67831C40.2171 5.67831 40.6347 5.82045 40.9485 6.10473C41.2624 6.38309 41.4194 6.8332 41.4194 7.45506V10.6177H40.0957V7.78376C40.0957 7.43433 40.0335 7.17374 39.9091 7.00199C39.7848 6.82432 39.5864 6.73548 39.3139 6.73548C38.9112 6.73548 38.6358 6.87466 38.4877 7.15301C38.3397 7.42545 38.2657 7.8193 38.2657 8.33455V10.6177H36.942V5.76715H37.9547L38.1324 6.38901H38.2035C38.3575 6.14027 38.5677 5.95963 38.8342 5.8471C39.1067 5.73458 39.3939 5.67831 39.6959 5.67831ZM44.3175 10.7065C43.7786 10.7065 43.3373 10.4963 42.9938 10.0758C42.6562 9.64935 42.4874 9.02452 42.4874 8.2013C42.4874 7.37215 42.6592 6.74436 43.0027 6.31794C43.3462 5.89152 43.7963 5.67831 44.353 5.67831C44.7025 5.67831 44.9897 5.74642 45.2148 5.88264C45.4398 6.01886 45.6175 6.18765 45.7478 6.38901H45.7922C45.7744 6.29425 45.7537 6.15804 45.73 5.98036C45.7063 5.79676 45.6945 5.6102 45.6945 5.42068V3.86603H47.0182V10.6177H46.0054L45.7478 9.98693H45.6945C45.5642 10.1883 45.3895 10.36 45.1703 10.5022C44.9512 10.6384 44.6669 10.7065 44.3175 10.7065ZM44.7795 9.64935C45.1466 9.64935 45.4043 9.54274 45.5523 9.32953C45.7004 9.1104 45.7774 8.78466 45.7833 8.35232V8.21018C45.7833 7.73638 45.7093 7.37511 45.5612 7.12636C45.4191 6.87762 45.1526 6.75325 44.7617 6.75325C44.4715 6.75325 44.2435 6.88058 44.0776 7.13525C43.9118 7.38399 43.8289 7.74526 43.8289 8.21906C43.8289 8.69286 43.9118 9.05118 44.0776 9.294C44.2435 9.5309 44.4774 9.64935 44.7795 9.64935ZM51.1119 5.67831C51.177 5.67831 51.254 5.68127 51.3429 5.6872C51.4317 5.69312 51.5028 5.702 51.5561 5.71385L51.4584 6.95757C51.4169 6.94573 51.3547 6.93684 51.2718 6.93092C51.1948 6.91908 51.1267 6.91315 51.0675 6.91315C50.8424 6.91315 50.6263 6.95461 50.419 7.03753C50.2117 7.11452 50.0429 7.24185 49.9126 7.41953C49.7882 7.5972 49.726 7.84002 49.726 8.14799V10.6177H48.4024V5.76715H49.4062L49.6017 6.58445H49.6638C49.806 6.33571 50.0014 6.1225 50.2502 5.94483C50.4989 5.76715 50.7862 5.67831 51.1119 5.67831ZM56.6693 8.18353C56.6693 8.98899 56.4561 9.61085 56.0297 10.0491C55.6092 10.4874 55.0347 10.7065 54.3062 10.7065C53.8561 10.7065 53.4534 10.6088 53.098 10.4133C52.7486 10.2179 52.4732 9.93363 52.2719 9.56051C52.0705 9.18147 51.9698 8.72248 51.9698 8.18353C51.9698 7.37807 52.1801 6.75917 52.6006 6.32683C53.021 5.89448 53.5985 5.67831 54.3329 5.67831C54.7889 5.67831 55.1916 5.77603 55.5411 5.97148C55.8905 6.16692 56.1659 6.4512 56.3673 6.82432C56.5686 7.19151 56.6693 7.64458 56.6693 8.18353ZM53.3201 8.18353C53.3201 8.66325 53.3971 9.02749 53.5511 9.27623C53.711 9.51905 53.9686 9.64046 54.324 9.64046C54.6734 9.64046 54.9251 9.51905 55.0791 9.27623C55.239 9.02749 55.319 8.66325 55.319 8.18353C55.319 7.70381 55.239 7.3455 55.0791 7.1086C54.9251 6.86577 54.6705 6.74436 54.3151 6.74436C53.9657 6.74436 53.711 6.86577 53.5511 7.1086C53.3971 7.3455 53.3201 7.70381 53.3201 8.18353ZM58.4295 3.86603C58.625 3.86603 58.7938 3.91341 58.9359 4.00817C59.0781 4.09701 59.1491 4.2658 59.1491 4.51454C59.1491 4.75736 59.0781 4.92616 58.9359 5.02092C58.7938 5.11568 58.625 5.16306 58.4295 5.16306C58.2282 5.16306 58.0564 5.11568 57.9143 5.02092C57.7781 4.92616 57.71 4.75736 57.71 4.51454C57.71 4.2658 57.7781 4.09701 57.9143 4.00817C58.0564 3.91341 58.2282 3.86603 58.4295 3.86603ZM59.0869 5.76715V10.6177H57.7633V5.76715H59.0869ZM62.0069 10.7065C61.468 10.7065 61.0267 10.4963 60.6832 10.0758C60.3457 9.64935 60.1769 9.02452 60.1769 8.2013C60.1769 7.37215 60.3486 6.74436 60.6921 6.31794C61.0356 5.89152 61.4857 5.67831 62.0424 5.67831C62.3919 5.67831 62.6791 5.74642 62.9042 5.88264C63.1292 6.01886 63.3069 6.18765 63.4372 6.38901H63.4816C63.4638 6.29425 63.4431 6.15804 63.4194 5.98036C63.3957 5.79676 63.3839 5.6102 63.3839 5.42068V3.86603H64.7076V10.6177H63.6948L63.4372 9.98693H63.3839C63.2536 10.1883 63.0789 10.36 62.8598 10.5022C62.6406 10.6384 62.3563 10.7065 62.0069 10.7065ZM62.4689 9.64935C62.8361 9.64935 63.0937 9.54274 63.2418 9.32953C63.3898 9.1104 63.4668 8.78466 63.4727 8.35232V8.21018C63.4727 7.73638 63.3987 7.37511 63.2506 7.12636C63.1085 6.87762 62.842 6.75325 62.4511 6.75325C62.1609 6.75325 61.9329 6.88058 61.7671 7.13525C61.6012 7.38399 61.5183 7.74526 61.5183 8.21906C61.5183 8.69286 61.6012 9.05118 61.7671 9.294C61.9329 9.5309 62.1668 9.64935 62.4689 9.64935Z" fill="black"/>
<path d="M33.2697 15.17C33.9389 15.17 34.469 15.3625 34.8599 15.7475C35.2508 16.1265 35.4462 16.6684 35.4462 17.3732V18.0128H32.3191C32.331 18.3859 32.4406 18.6791 32.6478 18.8923C32.8611 19.1055 33.1542 19.2121 33.5273 19.2121C33.8412 19.2121 34.1255 19.1825 34.3802 19.1233C34.6348 19.0581 34.8984 18.9604 35.1708 18.8301V19.8517C34.9339 19.9702 34.6822 20.0561 34.4157 20.1094C34.1551 20.1686 33.8383 20.1982 33.4652 20.1982C32.9795 20.1982 32.5501 20.1094 32.177 19.9317C31.8039 19.7481 31.5107 19.4727 31.2975 19.1055C31.0843 18.7383 30.9777 18.2764 30.9777 17.7196C30.9777 17.1511 31.0725 16.6802 31.262 16.3071C31.4574 15.9281 31.7269 15.6438 32.0704 15.4543C32.4139 15.2648 32.8137 15.17 33.2697 15.17ZM33.2786 16.1117C33.0239 16.1117 32.8107 16.1946 32.639 16.3604C32.4731 16.5263 32.3754 16.7839 32.3458 17.1333H34.2025C34.1966 16.8372 34.1196 16.5944 33.9715 16.4049C33.8235 16.2094 33.5925 16.1117 33.2786 16.1117ZM39.2735 15.17C39.7947 15.17 40.2122 15.3122 40.5261 15.5964C40.84 15.8748 40.997 16.3249 40.997 16.9468V20.1094H39.6733V17.2755C39.6733 16.926 39.6111 16.6654 39.4867 16.4937C39.3624 16.316 39.164 16.2272 38.8915 16.2272C38.4888 16.2272 38.2134 16.3664 38.0653 16.6447C37.9173 16.9171 37.8432 17.311 37.8432 17.8263V20.1094H36.5196V15.2588H37.5323L37.71 15.8807H37.7811C37.935 15.632 38.1453 15.4513 38.4118 15.3388C38.6842 15.2263 38.9715 15.17 39.2735 15.17ZM44.4015 19.141C44.5495 19.141 44.6917 19.1262 44.8279 19.0966C44.9641 19.067 45.1003 19.0315 45.2365 18.99V19.9761C45.0944 20.0353 44.9167 20.0857 44.7035 20.1271C44.4962 20.1745 44.2682 20.1982 44.0195 20.1982C43.7293 20.1982 43.4687 20.1508 43.2377 20.0561C43.0126 19.9613 42.832 19.7984 42.6958 19.5675C42.5655 19.3306 42.5003 19.0048 42.5003 18.5903V16.2538H41.8696V15.6942L42.5981 15.25L42.9801 14.2283H43.824V15.2588H45.1832V16.2538H43.824V18.5903C43.824 18.7739 43.8773 18.913 43.9839 19.0078C44.0905 19.0966 44.2297 19.141 44.4015 19.141ZM48.209 15.17C48.8782 15.17 49.4083 15.3625 49.7992 15.7475C50.1901 16.1265 50.3855 16.6684 50.3855 17.3732V18.0128H47.2584C47.2703 18.3859 47.3798 18.6791 47.5871 18.8923C47.8003 19.1055 48.0935 19.2121 48.4666 19.2121C48.7805 19.2121 49.0648 19.1825 49.3194 19.1233C49.5741 19.0581 49.8377 18.9604 50.1101 18.8301V19.8517C49.8732 19.9702 49.6215 20.0561 49.355 20.1094C49.0944 20.1686 48.7775 20.1982 48.4044 20.1982C47.9188 20.1982 47.4894 20.1094 47.1163 19.9317C46.7432 19.7481 46.45 19.4727 46.2368 19.1055C46.0236 18.7383 45.917 18.2764 45.917 17.7196C45.917 17.1511 46.0117 16.6802 46.2012 16.3071C46.3967 15.9281 46.6662 15.6438 47.0097 15.4543C47.3532 15.2648 47.7529 15.17 48.209 15.17ZM48.2179 16.1117C47.9632 16.1117 47.75 16.1946 47.5782 16.3604C47.4124 16.5263 47.3147 16.7839 47.2851 17.1333H49.1418C49.1358 16.8372 49.0589 16.5944 48.9108 16.4049C48.7627 16.2094 48.5318 16.1117 48.2179 16.1117ZM54.1684 15.17C54.2335 15.17 54.3105 15.173 54.3994 15.1789C54.4882 15.1848 54.5593 15.1937 54.6126 15.2055L54.5148 16.4493C54.4734 16.4374 54.4112 16.4285 54.3283 16.4226C54.2513 16.4108 54.1832 16.4049 54.124 16.4049C53.8989 16.4049 53.6827 16.4463 53.4754 16.5292C53.2682 16.6062 53.0994 16.7336 52.9691 16.9112C52.8447 17.0889 52.7825 17.3317 52.7825 17.6397V20.1094H51.4588V15.2588H52.4627L52.6581 16.0762H52.7203C52.8625 15.8274 53.0579 15.6142 53.3066 15.4365C53.5554 15.2588 53.8426 15.17 54.1684 15.17ZM58.1936 15.17C58.7385 15.17 59.1797 15.3832 59.5173 15.8096C59.8549 16.2301 60.0237 16.852 60.0237 17.6752C60.0237 18.4985 59.849 19.1262 59.4995 19.5586C59.1501 19.985 58.7029 20.1982 58.1581 20.1982C57.8087 20.1982 57.5303 20.136 57.323 20.0117C57.1157 19.8814 56.9469 19.7363 56.8166 19.5764H56.7456C56.7929 19.8251 56.8166 20.062 56.8166 20.287V22.2415H55.493V15.2588H56.5679L56.7544 15.8896H56.8166C56.9469 15.6942 57.1216 15.5254 57.3408 15.3832C57.5599 15.2411 57.8442 15.17 58.1936 15.17ZM57.7672 16.2272C57.4237 16.2272 57.1809 16.3338 57.0387 16.547C56.9025 16.7602 56.8285 17.0859 56.8166 17.5242V17.6663C56.8166 18.1342 56.8847 18.4955 57.021 18.7502C57.1631 18.9989 57.4178 19.1233 57.785 19.1233C58.087 19.1233 58.3091 18.9989 58.4512 18.7502C58.5993 18.4955 58.6733 18.1313 58.6733 17.6575C58.6733 16.7039 58.3713 16.2272 57.7672 16.2272ZM63.8242 15.17C63.8894 15.17 63.9664 15.173 64.0552 15.1789C64.1441 15.1848 64.2151 15.1937 64.2684 15.2055L64.1707 16.4493C64.1292 16.4374 64.0671 16.4285 63.9841 16.4226C63.9072 16.4108 63.839 16.4049 63.7798 16.4049C63.5548 16.4049 63.3386 16.4463 63.1313 16.5292C62.924 16.6062 62.7552 16.7336 62.6249 16.9112C62.5006 17.0889 62.4384 17.3317 62.4384 17.6397V20.1094H61.1147V15.2588H62.1186L62.314 16.0762H62.3762C62.5183 15.8274 62.7138 15.6142 62.9625 15.4365C63.2113 15.2588 63.4985 15.17 63.8242 15.17ZM65.8151 13.3577C66.0105 13.3577 66.1793 13.4051 66.3215 13.4999C66.4636 13.5887 66.5347 13.7575 66.5347 14.0062C66.5347 14.2491 66.4636 14.4179 66.3215 14.5126C66.1793 14.6074 66.0105 14.6548 65.8151 14.6548C65.6137 14.6548 65.442 14.6074 65.2998 14.5126C65.1636 14.4179 65.0955 14.2491 65.0955 14.0062C65.0955 13.7575 65.1636 13.5887 65.2998 13.4999C65.442 13.4051 65.6137 13.3577 65.8151 13.3577ZM66.4725 15.2588V20.1094H65.1488V15.2588H66.4725ZM71.2403 18.6702C71.2403 19.1618 71.0656 19.5408 70.7162 19.8073C70.3727 20.0679 69.8574 20.1982 69.1704 20.1982C68.8328 20.1982 68.5426 20.1745 68.2998 20.1271C68.057 20.0857 67.8141 20.0146 67.5713 19.9139V18.8212C67.8319 18.9397 68.1132 19.0374 68.4153 19.1144C68.7173 19.1914 68.9838 19.2299 69.2148 19.2299C69.4754 19.2299 69.659 19.1914 69.7656 19.1144C69.8781 19.0374 69.9344 18.9367 69.9344 18.8123C69.9344 18.7294 69.9107 18.6554 69.8633 18.5903C69.8219 18.5251 69.7271 18.4511 69.579 18.3682C69.431 18.2852 69.2 18.1786 68.8861 18.0483C68.5841 17.9181 68.3353 17.7907 68.1399 17.6663C67.9444 17.536 67.7993 17.3821 67.7046 17.2044C67.6098 17.0208 67.5624 16.7928 67.5624 16.5203C67.5624 16.0702 67.7371 15.7326 68.0866 15.5076C68.436 15.2825 68.9009 15.17 69.4813 15.17C69.7834 15.17 70.0706 15.1996 70.343 15.2588C70.6155 15.3181 70.8968 15.4158 71.187 15.552L70.7872 16.5026C70.5503 16.4019 70.3253 16.319 70.1121 16.2538C69.8989 16.1828 69.6827 16.1472 69.4635 16.1472C69.0727 16.1472 68.8772 16.2538 68.8772 16.467C68.8772 16.544 68.9009 16.6151 68.9483 16.6802C69.0016 16.7395 69.0993 16.8046 69.2415 16.8757C69.3895 16.9468 69.6057 17.0415 69.89 17.16C70.1683 17.2725 70.4082 17.3909 70.6096 17.5153C70.8109 17.6338 70.9649 17.7848 71.0715 17.9684C71.184 18.1461 71.2403 18.38 71.2403 18.6702ZM74.2703 15.17C74.9395 15.17 75.4696 15.3625 75.8605 15.7475C76.2514 16.1265 76.4468 16.6684 76.4468 17.3732V18.0128H73.3197C73.3316 18.3859 73.4411 18.6791 73.6484 18.8923C73.8616 19.1055 74.1548 19.2121 74.5279 19.2121C74.8418 19.2121 75.1261 19.1825 75.3808 19.1233C75.6354 19.0581 75.899 18.9604 76.1714 18.8301V19.8517C75.9345 19.9702 75.6828 20.0561 75.4163 20.1094C75.1557 20.1686 74.8388 20.1982 74.4657 20.1982C73.9801 20.1982 73.5507 20.1094 73.1776 19.9317C72.8045 19.7481 72.5113 19.4727 72.2981 19.1055C72.0849 18.7383 71.9783 18.2764 71.9783 17.7196C71.9783 17.1511 72.073 16.6802 72.2626 16.3071C72.458 15.9281 72.7275 15.6438 73.071 15.4543C73.4145 15.2648 73.8142 15.17 74.2703 15.17ZM74.2792 16.1117C74.0245 16.1117 73.8113 16.1946 73.6395 16.3604C73.4737 16.5263 73.376 16.7839 73.3464 17.1333H75.2031C75.1972 16.8372 75.1202 16.5944 74.9721 16.4049C74.824 16.2094 74.5931 16.1117 74.2792 16.1117Z" fill="black"/>
<path d="M34.8637 24.6617C34.9289 24.6617 35.0059 24.6647 35.0947 24.6706C35.1835 24.6765 35.2546 24.6854 35.3079 24.6972L35.2102 25.941C35.1687 25.9291 35.1065 25.9202 35.0236 25.9143C34.9466 25.9025 34.8785 25.8966 34.8193 25.8966C34.5942 25.8966 34.3781 25.938 34.1708 26.0209C33.9635 26.0979 33.7947 26.2253 33.6644 26.4029C33.54 26.5806 33.4778 26.8234 33.4778 27.1314V29.6011H32.1542V24.7505H33.158L33.3535 25.5679H33.4157C33.5578 25.3191 33.7532 25.1059 34.002 24.9282C34.2507 24.7505 34.538 24.6617 34.8637 24.6617ZM38.0136 24.6617C38.6829 24.6617 39.2129 24.8542 39.6038 25.2392C39.9947 25.6182 40.1901 26.1601 40.1901 26.8649V27.5045H37.0631C37.0749 27.8776 37.1845 28.1708 37.3918 28.384C37.605 28.5972 37.8981 28.7038 38.2713 28.7038C38.5851 28.7038 38.8694 28.6742 39.1241 28.615C39.3788 28.5498 39.6423 28.4521 39.9147 28.3218V29.3434C39.6778 29.4619 39.4261 29.5478 39.1596 29.6011C38.899 29.6603 38.5822 29.6899 38.2091 29.6899C37.7234 29.6899 37.294 29.6011 36.9209 29.4234C36.5478 29.2398 36.2546 28.9644 36.0414 28.5972C35.8282 28.23 35.7216 27.7681 35.7216 27.2113C35.7216 26.6428 35.8164 26.1719 36.0059 25.7988C36.2013 25.4198 36.4708 25.1355 36.8143 24.946C37.1578 24.7565 37.5576 24.6617 38.0136 24.6617ZM38.0225 25.6034C37.7678 25.6034 37.5546 25.6863 37.3829 25.8521C37.2171 26.018 37.1193 26.2756 37.0897 26.625H38.9464C38.9405 26.3289 38.8635 26.0861 38.7154 25.8966C38.5674 25.7011 38.3364 25.6034 38.0225 25.6034ZM43.2357 29.6899C42.5131 29.6899 41.9535 29.4915 41.5566 29.0947C41.1658 28.692 40.9703 28.0612 40.9703 27.2025C40.9703 26.6102 41.071 26.1275 41.2724 25.7544C41.4737 25.3813 41.7521 25.1059 42.1074 24.9282C42.4687 24.7505 42.8833 24.6617 43.3512 24.6617C43.6828 24.6617 43.9701 24.6943 44.2129 24.7594C44.4616 24.8246 44.6778 24.9016 44.8614 24.9904L44.4705 26.012C44.2632 25.9291 44.0678 25.861 43.8842 25.8077C43.7065 25.7544 43.5288 25.7278 43.3512 25.7278C42.6642 25.7278 42.3206 26.2164 42.3206 27.1936C42.3206 27.6792 42.4095 28.0375 42.5872 28.2685C42.7708 28.4995 43.0254 28.615 43.3512 28.615C43.6295 28.615 43.8753 28.5794 44.0885 28.5084C44.3017 28.4314 44.509 28.3277 44.7104 28.1974V29.3257C44.509 29.456 44.2958 29.5478 44.0707 29.6011C43.8516 29.6603 43.5733 29.6899 43.2357 29.6899ZM50.2331 27.1669C50.2331 27.9724 50.0199 28.5942 49.5935 29.0325C49.173 29.4708 48.5985 29.6899 47.8701 29.6899C47.42 29.6899 47.0172 29.5922 46.6619 29.3967C46.3125 29.2013 46.0371 28.917 45.8357 28.5439C45.6343 28.1649 45.5336 27.7059 45.5336 27.1669C45.5336 26.3615 45.7439 25.7426 46.1644 25.3102C46.5849 24.8779 47.1623 24.6617 47.8967 24.6617C48.3528 24.6617 48.7555 24.7594 49.1049 24.9549C49.4543 25.1503 49.7297 25.4346 49.9311 25.8077C50.1325 26.1749 50.2331 26.628 50.2331 27.1669ZM46.884 27.1669C46.884 27.6466 46.961 28.0109 47.115 28.2596C47.2749 28.5025 47.5325 28.6239 47.8878 28.6239C48.2373 28.6239 48.489 28.5025 48.643 28.2596C48.8029 28.0109 48.8828 27.6466 48.8828 27.1669C48.8828 26.6872 48.8029 26.3289 48.643 26.092C48.489 25.8492 48.2343 25.7278 47.879 25.7278C47.5295 25.7278 47.2749 25.8492 47.115 26.092C46.961 26.3289 46.884 26.6872 46.884 27.1669ZM57.0216 24.6617C57.5724 24.6617 57.9869 24.8039 58.2653 25.0881C58.5496 25.3665 58.6917 25.8166 58.6917 26.4385V29.6011H57.368V26.7672C57.368 26.0683 57.1252 25.7189 56.6396 25.7189C56.2902 25.7189 56.0414 25.8432 55.8933 26.092C55.7453 26.3407 55.6713 26.6991 55.6713 27.1669V29.6011H54.3476V26.7672C54.3476 26.0683 54.1048 25.7189 53.6191 25.7189C53.2519 25.7189 52.9972 25.8581 52.8551 26.1364C52.7189 26.4088 52.6508 26.8027 52.6508 27.318V29.6011H51.3271V24.7505H52.3398L52.5175 25.3724H52.5886C52.7367 25.1237 52.938 24.943 53.1927 24.8305C53.4533 24.718 53.7227 24.6617 54.0011 24.6617C54.3565 24.6617 54.6585 24.7209 54.9072 24.8394C55.156 24.9519 55.3455 25.1296 55.4758 25.3724H55.5913C55.7394 25.1237 55.9437 24.943 56.2043 24.8305C56.4708 24.718 56.7432 24.6617 57.0216 24.6617ZM65.7492 24.6617C66.3 24.6617 66.7145 24.8039 66.9929 25.0881C67.2772 25.3665 67.4193 25.8166 67.4193 26.4385V29.6011H66.0956V26.7672C66.0956 26.0683 65.8528 25.7189 65.3672 25.7189C65.0177 25.7189 64.769 25.8432 64.6209 26.092C64.4729 26.3407 64.3988 26.6991 64.3988 27.1669V29.6011H63.0752V26.7672C63.0752 26.0683 62.8323 25.7189 62.3467 25.7189C61.9795 25.7189 61.7248 25.8581 61.5827 26.1364C61.4465 26.4088 61.3784 26.8027 61.3784 27.318V29.6011H60.0547V24.7505H61.0674L61.2451 25.3724H61.3162C61.4642 25.1237 61.6656 24.943 61.9203 24.8305C62.1809 24.718 62.4503 24.6617 62.7287 24.6617C63.084 24.6617 63.3861 24.7209 63.6348 24.8394C63.8836 24.9519 64.0731 25.1296 64.2034 25.3724H64.3189C64.4669 25.1237 64.6713 24.943 64.9319 24.8305C65.1984 24.718 65.4708 24.6617 65.7492 24.6617ZM70.7811 24.6617C71.4504 24.6617 71.9804 24.8542 72.3713 25.2392C72.7622 25.6182 72.9576 26.1601 72.9576 26.8649V27.5045H69.8306C69.8424 27.8776 69.952 28.1708 70.1593 28.384C70.3725 28.5972 70.6656 28.7038 71.0387 28.7038C71.3526 28.7038 71.6369 28.6742 71.8916 28.615C72.1463 28.5498 72.4098 28.4521 72.6822 28.3218V29.3434C72.4453 29.4619 72.1936 29.5478 71.9271 29.6011C71.6665 29.6603 71.3497 29.6899 70.9766 29.6899C70.4909 29.6899 70.0615 29.6011 69.6884 29.4234C69.3153 29.2398 69.0221 28.9644 68.8089 28.5972C68.5957 28.23 68.4891 27.7681 68.4891 27.2113C68.4891 26.6428 68.5839 26.1719 68.7734 25.7988C68.9688 25.4198 69.2383 25.1355 69.5818 24.946C69.9253 24.7565 70.3251 24.6617 70.7811 24.6617ZM70.79 25.6034C70.5353 25.6034 70.3221 25.6863 70.1504 25.8521C69.9845 26.018 69.8868 26.2756 69.8572 26.625H71.7139C71.708 26.3289 71.631 26.0861 71.4829 25.8966C71.3349 25.7011 71.1039 25.6034 70.79 25.6034ZM76.7849 24.6617C77.3061 24.6617 77.7236 24.8039 78.0375 25.0881C78.3514 25.3665 78.5084 25.8166 78.5084 26.4385V29.6011H77.1847V26.7672C77.1847 26.4177 77.1225 26.1571 76.9981 25.9854C76.8738 25.8077 76.6754 25.7189 76.4029 25.7189C76.0002 25.7189 75.7248 25.8581 75.5767 26.1364C75.4287 26.4088 75.3546 26.8027 75.3546 27.318V29.6011H74.031V24.7505H75.0437L75.2214 25.3724H75.2925C75.4464 25.1237 75.6567 24.943 75.9232 24.8305C76.1956 24.718 76.4829 24.6617 76.7849 24.6617ZM81.4065 29.6899C80.8675 29.6899 80.4263 29.4797 80.0828 29.0592C79.7452 28.6327 79.5764 28.0079 79.5764 27.1847C79.5764 26.3555 79.7482 25.7278 80.0917 25.3013C80.4352 24.8749 80.8853 24.6617 81.442 24.6617C81.7915 24.6617 82.0787 24.7298 82.3038 24.866C82.5288 25.0023 82.7065 25.171 82.8368 25.3724H82.8812C82.8634 25.2777 82.8427 25.1414 82.819 24.9638C82.7953 24.7802 82.7835 24.5936 82.7835 24.4041V22.8494H84.1072V29.6011H83.0944L82.8368 28.9703H82.7835C82.6532 29.1717 82.4785 29.3434 82.2593 29.4856C82.0402 29.6218 81.7559 29.6899 81.4065 29.6899ZM81.8684 28.6327C82.2356 28.6327 82.4933 28.5261 82.6413 28.3129C82.7894 28.0938 82.8664 27.7681 82.8723 27.3357V27.1936C82.8723 26.7198 82.7983 26.3585 82.6502 26.1098C82.5081 25.861 82.2416 25.7366 81.8507 25.7366C81.5605 25.7366 81.3325 25.864 81.1666 26.1186C81.0008 26.3674 80.9179 26.7287 80.9179 27.2025C80.9179 27.6763 81.0008 28.0346 81.1666 28.2774C81.3325 28.5143 81.5664 28.6327 81.8684 28.6327ZM87.4902 24.6617C88.1594 24.6617 88.6895 24.8542 89.0804 25.2392C89.4713 25.6182 89.6667 26.1601 89.6667 26.8649V27.5045H86.5396C86.5515 27.8776 86.661 28.1708 86.8683 28.384C87.0815 28.5972 87.3747 28.7038 87.7478 28.7038C88.0617 28.7038 88.346 28.6742 88.6007 28.615C88.8553 28.5498 89.1189 28.4521 89.3913 28.3218V29.3434C89.1544 29.4619 88.9027 29.5478 88.6362 29.6011C88.3756 29.6603 88.0588 29.6899 87.6856 29.6899C87.2 29.6899 86.7706 29.6011 86.3975 29.4234C86.0244 29.2398 85.7312 28.9644 85.518 28.5972C85.3048 28.23 85.1982 27.7681 85.1982 27.2113C85.1982 26.6428 85.2929 26.1719 85.4825 25.7988C85.6779 25.4198 85.9474 25.1355 86.2909 24.946C86.6344 24.7565 87.0342 24.6617 87.4902 24.6617ZM87.4991 25.6034C87.2444 25.6034 87.0312 25.6863 86.8594 25.8521C86.6936 26.018 86.5959 26.2756 86.5663 26.625H88.423C88.4171 26.3289 88.3401 26.0861 88.192 25.8966C88.0439 25.7011 87.813 25.6034 87.4991 25.6034ZM92.2769 29.6899C91.738 29.6899 91.2968 29.4797 90.9533 29.0592C90.6157 28.6327 90.4469 28.0079 90.4469 27.1847C90.4469 26.3555 90.6186 25.7278 90.9621 25.3013C91.3056 24.8749 91.7558 24.6617 92.3125 24.6617C92.6619 24.6617 92.9491 24.7298 93.1742 24.866C93.3992 25.0023 93.5769 25.171 93.7072 25.3724H93.7516C93.7339 25.2777 93.7131 25.1414 93.6895 24.9638C93.6658 24.7802 93.6539 24.5936 93.6539 24.4041V22.8494H94.9776V29.6011H93.9648L93.7072 28.9703H93.6539C93.5236 29.1717 93.3489 29.3434 93.1298 29.4856C92.9106 29.6218 92.6264 29.6899 92.2769 29.6899ZM92.7389 28.6327C93.1061 28.6327 93.3637 28.5261 93.5118 28.3129C93.6598 28.0938 93.7368 27.7681 93.7428 27.3357V27.1936C93.7428 26.7198 93.6687 26.3585 93.5207 26.1098C93.3785 25.861 93.112 25.7366 92.7211 25.7366C92.4309 25.7366 92.2029 25.864 92.0371 26.1186C91.8712 26.3674 91.7883 26.7287 91.7883 27.2025C91.7883 27.6763 91.8712 28.0346 92.0371 28.2774C92.2029 28.5143 92.4368 28.6327 92.7389 28.6327Z" fill="black"/>
</svg>
