<svg width="59" height="38" viewBox="0 0 59 38" fill="none" xmlns="http://www.w3.org/2000/svg">
<path d="M51.3287 23.6444H50.596V24.9165H49.7426V23.6444H47.271V22.9682L49.7346 19.1439H50.596V22.9198H51.3287V23.6444ZM49.7426 21.3579C49.7426 21.2291 49.7426 21.1057 49.7426 20.9876C49.748 20.8695 49.7534 20.7568 49.7587 20.6494C49.7641 20.5367 49.7668 20.4348 49.7668 20.3435C49.7721 20.2469 49.7775 20.161 49.7829 20.0859H49.7507C49.7077 20.1932 49.6567 20.3033 49.5977 20.416C49.544 20.5287 49.4904 20.628 49.4367 20.7139L48.0841 22.9198H49.7426V21.3579ZM51.9572 24.4415C51.9572 24.2322 52.0082 24.0846 52.1101 23.9987C52.2175 23.9128 52.349 23.8699 52.5046 23.8699C52.6549 23.8699 52.7837 23.9128 52.8911 23.9987C53.0038 24.0846 53.0602 24.2322 53.0602 24.4415C53.0602 24.6508 53.0038 24.8011 52.8911 24.8924C52.7837 24.9836 52.6549 25.0292 52.5046 25.0292C52.349 25.0292 52.2175 24.9836 52.1101 24.8924C52.0082 24.8011 51.9572 24.6508 51.9572 24.4415ZM55.7234 19.0875C56.0454 19.0875 56.3299 19.1412 56.5768 19.2486C56.829 19.3505 57.0249 19.5035 57.1645 19.7075C57.3094 19.9114 57.3819 20.1664 57.3819 20.4723C57.3819 20.7031 57.3363 20.9044 57.245 21.0762C57.1591 21.2479 57.0384 21.4009 56.8827 21.5351C56.7324 21.6639 56.566 21.7766 56.3835 21.8732C56.5929 21.9859 56.7861 22.1147 56.9632 22.2597C57.1403 22.3992 57.2826 22.5629 57.3899 22.7508C57.5026 22.9386 57.559 23.1641 57.559 23.4271C57.559 23.7491 57.4839 24.0282 57.3336 24.2644C57.1886 24.4952 56.9793 24.675 56.7056 24.8038C56.4318 24.9326 56.1071 24.997 55.7314 24.997C55.3289 24.997 54.988 24.9353 54.7089 24.8118C54.4352 24.6884 54.2285 24.514 54.089 24.2885C53.9494 24.0577 53.8797 23.7786 53.8797 23.4512C53.8797 23.1882 53.928 22.9601 54.0246 22.7669C54.1266 22.5736 54.2581 22.4073 54.4191 22.2677C54.5855 22.1282 54.768 22.0101 54.9666 21.9135C54.7948 21.8061 54.6391 21.6854 54.4996 21.5512C54.36 21.4116 54.25 21.2533 54.1695 21.0762C54.0944 20.899 54.0568 20.6951 54.0568 20.4643C54.0568 20.1637 54.1292 19.9141 54.2742 19.7155C54.4191 19.5116 54.6177 19.3559 54.8699 19.2486C55.1222 19.1412 55.4067 19.0875 55.7234 19.0875ZM54.717 23.4351C54.717 23.6981 54.8002 23.9155 54.9666 24.0872C55.1329 24.2536 55.3825 24.3368 55.7153 24.3368C55.9407 24.3368 56.1259 24.2993 56.2708 24.2241C56.4157 24.1436 56.5258 24.0363 56.6009 23.9021C56.6814 23.7625 56.7217 23.6042 56.7217 23.4271C56.7217 23.2499 56.6787 23.0943 56.5929 22.9601C56.507 22.8259 56.3889 22.7078 56.2386 22.6059C56.0937 22.4985 55.9273 22.4019 55.7395 22.316L55.6348 22.2677C55.4416 22.359 55.2752 22.4609 55.1356 22.5736C55.0014 22.6864 54.8968 22.8125 54.8216 22.952C54.7519 23.0916 54.717 23.2526 54.717 23.4351ZM55.7073 19.7558C55.4711 19.7558 55.2752 19.8202 55.1195 19.949C54.9692 20.0778 54.8941 20.2657 54.8941 20.5126C54.8941 20.6897 54.9317 20.84 55.0068 20.9634C55.0873 21.0869 55.1893 21.1942 55.3128 21.2855C55.4416 21.3714 55.5811 21.4546 55.7314 21.5351C55.8817 21.4599 56.0159 21.3794 56.134 21.2935C56.2574 21.2023 56.354 21.0949 56.4238 20.9715C56.4989 20.8427 56.5365 20.6897 56.5365 20.5126C56.5365 20.2657 56.4587 20.0778 56.303 19.949C56.1527 19.8202 55.9542 19.7558 55.7073 19.7558Z" fill="black"/>
<path d="M12.6562 12.0376H14.6958V24.6293H12.6562V12.0376Z" fill="#16313B"/>
<path d="M21.7896 20.6386C21.7896 22.5894 20.1935 22.7668 19.6614 22.7668C18.42 22.7668 18.2426 21.614 18.2426 20.9933V16.1162H16.2031V20.9046C16.2031 22.0574 16.5578 23.1215 17.2672 23.7422C17.8879 24.3629 18.686 24.6289 19.6614 24.6289C20.3708 24.6289 21.2575 24.4516 21.7896 23.9195V24.6289H23.8291V16.1162H21.7896V20.6386Z" fill="#16313B"/>
<path d="M27.8282 13.0132H25.7887V16.1168H24.2812V18.0676H25.7887V24.6295H27.8282V18.0676H29.3357V16.1168H27.8282V13.0132Z" fill="#16313B"/>
<path d="M35.7095 22.0575C35.2662 22.4122 34.6454 22.6782 34.0247 22.6782C32.6059 22.6782 31.6305 21.6141 31.6305 20.1953C31.6305 18.7765 32.6059 17.8011 34.0247 17.8011C34.6454 17.8011 35.2662 17.9785 35.7095 18.4218L35.9755 18.6879L37.3943 17.3577L37.0396 17.0917C36.2416 16.3823 35.1775 15.939 34.0247 15.939C31.5418 15.939 29.6797 17.8011 29.6797 20.284C29.6797 22.7669 31.5418 24.629 34.0247 24.629C35.1775 24.629 36.2416 24.1856 37.0396 23.4763L37.3943 23.2102L35.9755 21.7914L35.7095 22.0575Z" fill="#16313B"/>
<path d="M44.5822 16.826C43.9615 16.2053 43.3407 15.9393 42.3653 15.9393C41.6559 15.9393 40.9465 16.1166 40.4145 16.6486V12.0376H38.375V24.6293H40.4145V19.9296C40.4145 17.9788 41.7446 17.8014 42.2767 17.8014C43.5181 17.8014 43.4294 18.9542 43.4294 19.5749V24.5406H45.4689V19.6636C45.4689 18.5108 45.2029 17.4467 44.5822 16.826Z" fill="#16313B"/>
<path d="M33.9422 21.7028C34.7258 21.7028 35.361 21.0676 35.361 20.284C35.361 19.5004 34.7258 18.8652 33.9422 18.8652C33.1586 18.8652 32.5234 19.5004 32.5234 20.284C32.5234 21.0676 33.1586 21.7028 33.9422 21.7028Z" fill="#EF4335"/>
<path d="M9.82287 21.5254C9.11348 22.2348 8.04939 22.6782 6.89662 22.6782C4.67977 22.6782 3.08364 20.9047 3.08364 18.5105C3.08364 16.1163 4.67977 14.3428 6.9853 14.3428C8.04939 14.3428 9.11348 14.7862 9.91154 15.5843L10.1776 15.8503L11.5077 14.5202L11.2417 14.2541C10.0889 13.1014 8.58143 12.4807 6.9853 12.4807C3.61569 12.392 1.13281 15.0522 1.13281 18.5105C1.13281 21.9688 3.61569 24.629 6.89662 24.629C8.49276 24.629 10.0889 24.0083 11.153 22.8555L11.419 22.5895L10.0889 21.2594L9.82287 21.5254Z" fill="#16313B"/>
<path d="M17.7061 29.5815L16.8406 31.3429C16.7966 31.4326 16.7315 31.5101 16.651 31.5689C16.5705 31.6276 16.477 31.6658 16.3785 31.6802L14.4439 31.9627C14.3532 31.9759 14.268 32.0144 14.198 32.0737C14.1279 32.133 14.0757 32.2108 14.0474 32.2983C14.0191 32.3859 14.0158 32.4796 14.0378 32.569C14.0598 32.6583 14.1063 32.7397 14.1719 32.8039L15.5724 34.1751C15.6435 34.2448 15.6967 34.3307 15.7274 34.4256C15.7582 34.5206 15.7655 34.6215 15.7488 34.7199L15.4182 36.6562C15.4028 36.7468 15.413 36.84 15.4476 36.9251C15.4822 37.0102 15.5398 37.0839 15.6139 37.1379C15.688 37.1919 15.7756 37.224 15.8669 37.2305C15.9582 37.2371 16.0495 37.2179 16.1305 37.1751L17.8611 36.261C17.9492 36.2145 18.0472 36.1902 18.1467 36.1902C18.2461 36.1902 18.3441 36.2145 18.4322 36.261L20.1628 37.1751C20.2438 37.2179 20.3351 37.2371 20.4264 37.2305C20.5177 37.224 20.6053 37.1919 20.6794 37.1379C20.7535 37.0839 20.8111 37.0102 20.8457 36.9251C20.8803 36.84 20.8905 36.7468 20.8751 36.6562L20.5445 34.7199C20.5278 34.6215 20.5351 34.5205 20.5659 34.4256C20.5966 34.3307 20.6498 34.2447 20.7209 34.1751L22.1214 32.8039C22.1871 32.7397 22.2335 32.6583 22.2555 32.569C22.2775 32.4796 22.2742 32.3859 22.2459 32.2983C22.2176 32.2108 22.1654 32.133 22.0954 32.0737C22.0253 32.0144 21.9401 31.9759 21.8494 31.9627L19.914 31.6802C19.8156 31.6658 19.722 31.6276 19.6415 31.5689C19.561 31.5101 19.496 31.4326 19.4519 31.3429L18.5864 29.5815C18.5459 29.499 18.4832 29.4295 18.4054 29.381C18.3276 29.3324 18.2379 29.3066 18.1463 29.3066C18.0547 29.3066 17.9649 29.3324 17.8871 29.381C17.8094 29.4295 17.7467 29.499 17.7061 29.5815V29.5815Z" fill="#FFAF00"/>
<path d="M29.7382 29.5822L28.8726 31.3436C28.8286 31.4332 28.7635 31.5108 28.683 31.5695C28.6025 31.6283 28.509 31.6665 28.4105 31.6809L26.4751 31.9634C26.3845 31.9766 26.2993 32.015 26.2292 32.0743C26.1591 32.1337 26.107 32.2115 26.0787 32.299C26.0504 32.3866 26.047 32.4803 26.069 32.5696C26.091 32.659 26.1375 32.7404 26.2032 32.8046L27.6036 34.1757C27.6747 34.2454 27.728 34.3314 27.7587 34.4263C27.7894 34.5212 27.7967 34.6222 27.78 34.7206L27.4494 36.6568C27.4341 36.7475 27.4443 36.8406 27.4789 36.9258C27.5134 37.0109 27.571 37.0846 27.6451 37.1386C27.7192 37.1926 27.8069 37.2246 27.8982 37.2312C27.9895 37.2378 28.0808 37.2186 28.1618 37.1757L29.8924 36.2617C29.9804 36.2152 30.0784 36.1909 30.1779 36.1909C30.2774 36.1909 30.3754 36.2152 30.4635 36.2617L32.194 37.1757C32.275 37.2186 32.3663 37.2378 32.4576 37.2312C32.5489 37.2246 32.6366 37.1926 32.7107 37.1386C32.7848 37.0846 32.8424 37.0109 32.877 36.9258C32.9115 36.8406 32.9217 36.7475 32.9064 36.6568L32.5758 34.7206C32.5591 34.6222 32.5664 34.5212 32.5971 34.4263C32.6278 34.3314 32.6811 34.2454 32.7522 34.1757L34.1526 32.8046C34.2183 32.7404 34.2648 32.659 34.2868 32.5696C34.3088 32.4803 34.3054 32.3866 34.2771 32.299C34.2488 32.2115 34.1967 32.1337 34.1266 32.0743C34.0565 32.015 33.9714 31.9766 33.8807 31.9634L31.9453 31.6809C31.8468 31.6665 31.7533 31.6283 31.6728 31.5695C31.5923 31.5108 31.5272 31.4332 31.4832 31.3436L30.6177 29.5822C30.5771 29.4999 30.5144 29.4306 30.4367 29.3822C30.359 29.3338 30.2694 29.3081 30.1779 29.3081C30.0865 29.3081 29.9968 29.3338 29.9191 29.3822C29.8414 29.4306 29.7788 29.4999 29.7382 29.5822Z" fill="#FFAF00"/>
<path d="M41.7692 29.582L40.9036 31.3434C40.8596 31.4331 40.7945 31.5106 40.714 31.5694C40.6335 31.6281 40.54 31.6663 40.4415 31.6807L38.5064 31.9632C38.4157 31.9764 38.3305 32.0148 38.2604 32.0742C38.1904 32.1335 38.1382 32.2113 38.1099 32.2988C38.0816 32.3864 38.0783 32.4801 38.1003 32.5695C38.1223 32.6588 38.1687 32.7402 38.2344 32.8044L39.6349 34.1756C39.706 34.2452 39.7592 34.3312 39.7899 34.4261C39.8207 34.521 39.828 34.622 39.8113 34.7204L39.4807 36.6567C39.4653 36.7473 39.4755 36.8404 39.5101 36.9256C39.5447 37.0107 39.6023 37.0844 39.6764 37.1384C39.7505 37.1924 39.8381 37.2245 39.9294 37.231C40.0207 37.2376 40.112 37.2184 40.1931 37.1756L41.9236 36.2615C42.0117 36.215 42.1097 36.1907 42.2092 36.1907C42.3086 36.1907 42.4066 36.215 42.4947 36.2615L44.2253 37.1756C44.3063 37.2184 44.3976 37.2376 44.4889 37.231C44.5802 37.2245 44.6678 37.1924 44.7419 37.1384C44.816 37.0844 44.8736 37.0107 44.9082 36.9256C44.9428 36.8404 44.953 36.7473 44.9376 36.6567L44.607 34.7204C44.5903 34.622 44.5976 34.521 44.6284 34.4261C44.6591 34.3312 44.7123 34.2452 44.7834 34.1756L46.1839 32.8044C46.2496 32.7402 46.296 32.6588 46.318 32.5695C46.34 32.4801 46.3367 32.3864 46.3084 32.2988C46.2801 32.2113 46.2279 32.1335 46.1579 32.0742C46.0878 32.0148 46.0026 31.9764 45.9119 31.9632L43.9765 31.6807C43.8781 31.6663 43.7845 31.6281 43.704 31.5694C43.6235 31.5106 43.5585 31.4331 43.5144 31.3434L42.6494 29.582C42.6089 29.4995 42.5462 29.43 42.4684 29.3815C42.3906 29.3329 42.3009 29.3071 42.2093 29.3071C42.1177 29.3071 42.0279 29.3329 41.9502 29.3815C41.8724 29.43 41.8097 29.4995 41.7692 29.582V29.582Z" fill="#FFAF00"/>
<path d="M54.6918 29.5819L55.5573 31.3433C55.6014 31.433 55.6664 31.5105 55.7469 31.5692C55.8274 31.628 55.9209 31.6662 56.0194 31.6806L57.9545 31.9631C58.0452 31.9763 58.1304 32.0147 58.2005 32.074C58.2706 32.1334 58.3227 32.2112 58.351 32.2987C58.3793 32.3863 58.3826 32.48 58.3606 32.5694C58.3386 32.6587 58.2922 32.7401 58.2265 32.8043L56.8261 34.1754C56.7549 34.2451 56.7017 34.3311 56.671 34.426C56.6403 34.5209 56.6329 34.6219 56.6496 34.7203L56.9803 36.6566C56.9956 36.7472 56.9854 36.8403 56.9508 36.9255C56.9163 37.0106 56.8587 37.0843 56.7846 37.1383C56.7105 37.1923 56.6228 37.2244 56.5315 37.2309C56.4402 37.2375 56.3489 37.2183 56.2679 37.1754L54.5373 36.2614C54.4493 36.2149 54.3513 36.1906 54.2518 36.1906C54.1523 36.1906 54.0543 36.2149 53.9662 36.2614L52.2357 37.1754C52.1547 37.2183 52.0634 37.2375 51.9721 37.2309C51.8808 37.2244 51.7931 37.1923 51.719 37.1383C51.6449 37.0843 51.5873 37.0106 51.5527 36.9255C51.5181 36.8403 51.5079 36.7472 51.5233 36.6566L51.8539 34.7203C51.8706 34.6219 51.8633 34.5209 51.8326 34.426C51.8019 34.3311 51.7486 34.2451 51.6775 34.1754L50.277 32.8043C50.2114 32.7401 50.1649 32.6587 50.1429 32.5694C50.1209 32.48 50.1243 32.3863 50.1526 32.2987C50.1809 32.2112 50.233 32.1334 50.3031 32.074C50.3731 32.0147 50.4583 31.9763 50.549 31.9631L52.4844 31.6806C52.5829 31.6662 52.6764 31.628 52.7569 31.5692C52.8374 31.5105 52.9025 31.433 52.9465 31.3433L53.8097 29.5819C53.85 29.4989 53.9128 29.429 53.9907 29.38C54.0687 29.3311 54.1588 29.3052 54.2507 29.3052C54.3427 29.3052 54.4328 29.3311 54.5108 29.38C54.5887 29.429 54.6515 29.4989 54.6918 29.5819V29.5819Z" fill="#FFAF00"/>
<path d="M56.2679 37.1772L55.0893 36.5545V30.3916L55.5571 31.3438C55.6011 31.4334 55.6662 31.511 55.7467 31.5697C55.8272 31.6285 55.9207 31.6667 56.0192 31.6811L57.9545 31.9636C58.0452 31.9768 58.1304 32.0152 58.2005 32.0745C58.2706 32.1338 58.3227 32.2116 58.351 32.2992C58.3793 32.3867 58.3826 32.4805 58.3606 32.5698C58.3386 32.6592 58.2922 32.7405 58.2265 32.8047L56.8261 34.1759C56.7549 34.2456 56.7017 34.3316 56.671 34.4265C56.6403 34.5214 56.6329 34.6224 56.6496 34.7208L56.9803 36.657C56.9959 36.7478 56.9859 36.8411 56.9515 36.9264C56.917 37.0118 56.8594 37.0857 56.7853 37.1398C56.7111 37.194 56.6233 37.2262 56.5319 37.2328C56.4405 37.2394 56.349 37.2201 56.2679 37.1772V37.1772Z" fill="#FDE3AC"/>
<path d="M5.64441 29.5823L4.77888 31.3439C4.73485 31.4336 4.66978 31.5111 4.58928 31.5699C4.50878 31.6286 4.41526 31.6668 4.31679 31.6812L2.3814 31.9638C2.29071 31.9769 2.20551 32.0154 2.13545 32.0747C2.06538 32.134 2.01324 32.2118 1.98494 32.2993C1.95663 32.3869 1.95329 32.4806 1.97529 32.57C1.99729 32.6593 2.04376 32.7407 2.10942 32.8049L3.50988 34.1761C3.581 34.2458 3.6342 34.3318 3.66493 34.4267C3.69566 34.5216 3.70299 34.6225 3.68629 34.7209L3.35568 36.6572C3.34033 36.7478 3.35052 36.841 3.3851 36.9261C3.41969 37.0112 3.47728 37.0849 3.55139 37.1389C3.62549 37.1929 3.71314 37.225 3.80445 37.2315C3.89575 37.2381 3.98705 37.2189 4.06805 37.1761L5.79862 36.262C5.88668 36.2155 5.98467 36.1912 6.08416 36.1912C6.18365 36.1912 6.28164 36.2155 6.3697 36.262L8.10027 37.1761C8.18127 37.2189 8.27258 37.2381 8.36388 37.2315C8.45518 37.225 8.54283 37.1929 8.61694 37.1389C8.69104 37.0849 8.74863 37.0112 8.78322 36.9261C8.8178 36.841 8.82799 36.7478 8.81264 36.6572L8.48203 34.7209C8.46531 34.6225 8.47263 34.5216 8.50336 34.4266C8.53409 34.3317 8.5873 34.2458 8.65844 34.1761L10.0589 32.8049C10.1246 32.7407 10.171 32.6593 10.193 32.57C10.215 32.4806 10.2117 32.3869 10.1834 32.2993C10.1551 32.2118 10.1029 32.134 10.0329 32.0747C9.9628 32.0154 9.87761 31.9769 9.78693 31.9638L7.85256 31.681C7.75409 31.6666 7.66057 31.6284 7.58007 31.5696C7.49958 31.5109 7.43451 31.4333 7.39048 31.3437L6.52493 29.5823C6.48444 29.4997 6.42175 29.4302 6.34394 29.3815C6.26613 29.3329 6.17632 29.3071 6.08467 29.3071C5.99303 29.3071 5.90322 29.3329 5.82541 29.3815C5.7476 29.4302 5.6849 29.4997 5.64441 29.5823V29.5823Z" fill="#E2E2E2"/>
<path d="M6.5239 29.5832L7.38944 31.3446C7.43347 31.4342 7.49854 31.5118 7.57904 31.5705C7.65954 31.6293 7.75306 31.6675 7.85153 31.6819L9.78692 31.9644C9.8776 31.9776 9.9628 32.016 10.0329 32.0753C10.1029 32.1346 10.1551 32.2125 10.1834 32.3C10.2117 32.3875 10.215 32.4813 10.193 32.5706C10.171 32.66 10.1246 32.7413 10.0589 32.8055L8.65844 34.1767C8.58732 34.2464 8.53412 34.3324 8.50339 34.4273C8.47266 34.5222 8.46532 34.6232 8.48202 34.7216L8.81263 36.6578C8.82799 36.7485 8.8178 36.8416 8.78322 36.9267C8.74863 37.0119 8.69104 37.0856 8.61694 37.1396C8.54283 37.1935 8.45518 37.2256 8.36388 37.2322C8.27258 37.2388 8.18126 37.2195 8.10026 37.1767L6.3697 36.2627C6.28164 36.2162 6.18365 36.1919 6.08416 36.1919C5.98467 36.1919 5.88668 36.2162 5.79862 36.2627L4.06805 37.1767C3.98705 37.2195 3.89574 37.2388 3.80444 37.2322C3.71314 37.2256 3.62549 37.1935 3.55139 37.1396C3.47728 37.0856 3.41969 37.0119 3.3851 36.9267C3.35052 36.8416 3.34033 36.7485 3.35568 36.6578L3.68629 34.7216C3.70301 34.6232 3.69569 34.5222 3.66496 34.4273C3.63423 34.3324 3.58101 34.2464 3.50988 34.1767L2.10941 32.8055C2.04375 32.7413 1.99729 32.66 1.97529 32.5706C1.95329 32.4813 1.95663 32.3875 1.98494 32.3C2.01324 32.2125 2.06538 32.1346 2.13545 32.0753C2.20551 32.016 2.29071 31.9776 2.3814 31.9644L4.31679 31.6819C4.41526 31.6675 4.50878 31.6293 4.58928 31.5705C4.66978 31.5118 4.73485 31.4342 4.77888 31.3446L5.64441 29.5832C5.68501 29.5009 5.7477 29.4316 5.82539 29.3832C5.90309 29.3347 5.99272 29.3091 6.08416 29.3091C6.1756 29.3091 6.26523 29.3347 6.34293 29.3832C6.42063 29.4316 6.4833 29.5009 6.5239 29.5832V29.5832Z" fill="#FFAF00"/>
<path d="M2.32914 2.65896C2.70889 2.65896 3.02241 2.70974 3.26969 2.8113C3.51697 2.91287 3.70022 3.06521 3.81944 3.26833C3.94308 3.46704 4.0049 3.71873 4.0049 4.02342C4.0049 4.26628 3.96296 4.47161 3.87906 4.63941C3.79957 4.80279 3.6936 4.93747 3.56113 5.04344C3.43307 5.145 3.29398 5.2267 3.14384 5.28852L4.39569 7.38818H3.56113L2.50798 5.47398H1.78601V7.38818H1.0508V2.65896H2.32914ZM2.29603 3.26833H1.78601V4.87785H2.30927C2.52564 4.87785 2.70227 4.84694 2.83916 4.78513C2.98046 4.72331 3.08423 4.63058 3.15047 4.50694C3.22112 4.3833 3.25644 4.23095 3.25644 4.04991C3.25644 3.86003 3.22112 3.7099 3.15047 3.59951C3.08423 3.4847 2.97825 3.4008 2.83253 3.34781C2.69123 3.29482 2.5124 3.26833 2.29603 3.26833ZM6.30069 3.75185C6.72018 3.75185 7.03591 3.8512 7.24786 4.04991C7.46423 4.2442 7.57242 4.55109 7.57242 4.97058V7.38818H7.0624L6.92331 6.89142H6.89681C6.79525 7.01947 6.69369 7.12545 6.59213 7.20935C6.49498 7.29325 6.38017 7.35507 6.2477 7.39481C6.11965 7.43455 5.96068 7.45442 5.77081 7.45442C5.5721 7.45442 5.39326 7.41689 5.2343 7.34182C5.07533 7.26234 4.94949 7.14311 4.85676 6.98415C4.76403 6.82077 4.71766 6.61764 4.71766 6.37478C4.71766 6.01269 4.84572 5.73671 5.10183 5.54683C5.36235 5.35696 5.75756 5.25319 6.28744 5.23553L6.85707 5.21566V5.01695C6.85707 4.75201 6.80187 4.56655 6.69148 4.46057C6.5855 4.35459 6.43537 4.30161 6.24108 4.30161C6.0777 4.30161 5.91653 4.3281 5.75756 4.38109C5.59859 4.43408 5.44404 4.4981 5.29391 4.57317L5.07533 4.06316C5.23871 3.97484 5.42417 3.90198 5.63171 3.84458C5.84367 3.78276 6.06666 3.75185 6.30069 3.75185ZM6.42654 5.68593C6.06445 5.70359 5.81276 5.77204 5.67145 5.89126C5.53015 6.00607 5.4595 6.16945 5.4595 6.3814C5.4595 6.56686 5.50807 6.70154 5.60522 6.78544C5.70678 6.86934 5.83704 6.91129 5.99601 6.91129C6.23887 6.91129 6.44199 6.83401 6.60538 6.67946C6.77317 6.52491 6.85707 6.29309 6.85707 5.98399V5.67268L6.42654 5.68593ZM9.82391 6.88479C9.91664 6.88479 10.0072 6.87596 10.0955 6.8583C10.1838 6.84064 10.2611 6.82077 10.3273 6.79869V7.32857C10.2522 7.3639 10.1529 7.3926 10.0292 7.41468C9.91001 7.44117 9.78417 7.45442 9.65169 7.45442C9.46624 7.45442 9.29623 7.4213 9.14168 7.35507C8.98713 7.28883 8.86349 7.17402 8.77076 7.01064C8.67803 6.84726 8.63167 6.61985 8.63167 6.32841V4.35459H8.17464V4.03666L8.66478 3.77172L8.90986 3.01663H9.35363V3.81809H10.3008V4.35459H9.35363V6.31517C9.35363 6.50946 9.39779 6.65297 9.48611 6.7457C9.57442 6.83843 9.68702 6.88479 9.82391 6.88479ZM12.3421 3.75185C12.638 3.75185 12.8941 3.81809 13.1104 3.95056C13.3268 4.07861 13.4924 4.26407 13.6072 4.50694C13.7264 4.7498 13.786 5.03682 13.786 5.368V5.75216H11.5407C11.5495 6.11867 11.6378 6.39907 11.8056 6.59336C11.9734 6.78765 12.2096 6.88479 12.5143 6.88479C12.7307 6.88479 12.9228 6.86492 13.0906 6.82518C13.2628 6.78102 13.4372 6.717 13.6138 6.6331V7.21597C13.446 7.29545 13.2738 7.35507 13.0972 7.39481C12.925 7.43455 12.7152 7.45442 12.4679 7.45442C12.1456 7.45442 11.8586 7.38598 11.6069 7.24909C11.3552 7.1122 11.1587 6.90908 11.0174 6.63972C10.8761 6.36595 10.8054 6.03035 10.8054 5.63294C10.8054 5.23111 10.8695 4.8911 10.9975 4.61291C11.1256 4.33472 11.3044 4.12277 11.534 3.97705C11.7681 3.82692 12.0374 3.75185 12.3421 3.75185ZM12.3421 4.29498C12.1169 4.29498 11.9359 4.37667 11.799 4.54005C11.6621 4.70343 11.5826 4.93526 11.5605 5.23553H13.0773C13.0773 5.05007 13.0508 4.88669 12.9978 4.74538C12.9448 4.60408 12.8632 4.49369 12.7528 4.41421C12.6468 4.33472 12.5099 4.29498 12.3421 4.29498ZM19.2048 5.59982C19.2048 5.89568 19.1673 6.15841 19.0922 6.38803C19.0172 6.61764 18.909 6.81193 18.7677 6.9709C18.6308 7.12986 18.463 7.2513 18.2643 7.3352C18.0656 7.41468 17.8426 7.45442 17.5953 7.45442C17.3701 7.45442 17.1604 7.41468 16.9661 7.3352C16.7718 7.2513 16.604 7.12986 16.4627 6.9709C16.3214 6.81193 16.211 6.61764 16.1315 6.38803C16.0564 6.15841 16.0189 5.89347 16.0189 5.5932C16.0189 5.2002 16.0829 4.86682 16.211 4.59304C16.339 4.31927 16.5223 4.11173 16.7607 3.97043C17.0036 3.82471 17.2906 3.75185 17.6218 3.75185C17.9309 3.75185 18.2047 3.82471 18.4431 3.97043C18.6816 4.11173 18.867 4.31927 18.9995 4.59304C19.1364 4.86682 19.2048 5.20241 19.2048 5.59982ZM16.7607 5.59982C16.7607 5.86477 16.7894 6.09438 16.8468 6.28867C16.9087 6.47855 17.0014 6.62427 17.125 6.72583C17.2531 6.82739 17.4143 6.87817 17.6086 6.87817C17.8073 6.87817 17.9684 6.82739 18.0921 6.72583C18.2201 6.62427 18.3129 6.47855 18.3703 6.28867C18.4321 6.09438 18.463 5.86477 18.463 5.59982C18.463 5.32605 18.4321 5.09643 18.3703 4.91097C18.3084 4.72551 18.2157 4.58421 18.0921 4.48706C17.9684 4.3855 17.8051 4.33472 17.6019 4.33472C17.3061 4.33472 17.0919 4.44512 16.9594 4.6659C16.827 4.88669 16.7607 5.19799 16.7607 5.59982ZM21.7693 3.75185C22.1579 3.75185 22.4559 3.85562 22.6635 4.06316C22.8754 4.2707 22.9814 4.60408 22.9814 5.06331V7.38818H22.2661V5.16267C22.2661 4.88448 22.2109 4.67694 22.1005 4.54005C21.9945 4.39875 21.8289 4.3281 21.6037 4.3281C21.2725 4.3281 21.0451 4.43628 20.9215 4.65265C20.7978 4.86902 20.736 5.18033 20.736 5.58658V7.38818H20.0207V3.81809H20.5837L20.683 4.29498H20.7228C20.7978 4.17134 20.8884 4.06978 20.9943 3.9903C21.1003 3.91082 21.2195 3.8512 21.352 3.81146C21.4845 3.77172 21.6236 3.75185 21.7693 3.75185Z" fill="black"/>
</svg>
