<svg width="97" height="15" viewBox="0 0 97 15" fill="none" xmlns="http://www.w3.org/2000/svg">
<g opacity="0.9" clip-path="url(#clip0_6335_20306)">
<path d="M6.59013 5.01148C6.59013 5.01148 5.79712 4.93415 5.79712 5.62679V8.70331H11.034V9.6266C11.034 9.6266 11.0496 10.0879 10.5579 10.0879H5.79712V14.0877H11.51C11.51 14.0877 14.9691 13.5644 15.001 10.0879V5.01148H6.59013ZM14.8419 0.0883789H4.52736C0.797642 0.949672 0.71875 3.94953 0.71875 3.94953V14.0877H4.68651V4.85749C4.68651 4.07286 5.47951 3.93487 5.47951 3.93487H14.8426V0.0883789H14.8419ZM28.459 11.1865C28.187 11.3645 27.9857 11.4952 27.8435 11.5785C27.3348 11.8872 26.8499 12.1251 26.4003 12.3151C25.7495 12.5765 25.1693 12.7071 24.6491 12.7071C22.8624 12.7071 21.3832 12.1725 20.1876 11.0912C18.9919 10.0099 18.4016 8.65598 18.4016 7.01672C18.4016 5.4368 18.9341 4.07019 20.0107 2.90558C21.0873 1.74163 22.3891 1.17099 23.9275 1.17099C24.5668 1.17099 25.2523 1.27766 25.9624 1.50431C26.8853 1.78897 27.6307 2.21695 28.2224 2.77492L27.1927 3.89153C26.7554 3.47622 26.1875 3.1669 25.5244 2.97691C25.0279 2.83425 24.4838 2.76359 23.8799 2.76359C22.8033 2.76359 21.8919 3.19023 21.1703 4.03419C20.4487 4.88949 20.0821 5.89944 20.0821 7.08738C20.0821 8.264 20.4956 9.22595 21.324 9.99858C22.1524 10.7705 23.2052 11.1625 24.4831 11.1625C25.0156 11.1625 25.5604 10.9959 26.1161 10.6759C26.5779 10.3312 26.8145 10.1646 26.8261 10.1526V7.71736H23.3711L23.8676 6.19676H28.459V11.1865ZM38.8953 8.216C38.8953 9.39194 38.4696 10.4139 37.6174 11.2692C36.7652 12.1245 35.7124 12.5645 34.4583 12.5645C33.2987 12.5645 32.2812 12.1365 31.4053 11.2932C30.5293 10.4499 30.1035 9.42794 30.1035 8.228C30.1035 7.04005 30.5184 6.0181 31.3461 5.13881C32.1738 4.25952 33.1919 3.8322 34.3869 3.8322C35.7124 3.8322 36.789 4.24818 37.6289 5.09148C38.4696 5.91144 38.8953 6.95672 38.8953 8.216ZM37.2739 8.24C37.2739 7.44404 37.0019 6.76673 36.4578 6.22009C35.9137 5.66145 35.239 5.38813 34.4345 5.38813C33.6775 5.38813 33.0382 5.67345 32.5057 6.24409C31.9732 6.81406 31.7127 7.46737 31.7127 8.204C31.7127 8.97663 31.9847 9.62993 32.5172 10.1766C33.0498 10.7232 33.7129 11.0079 34.5168 11.0079C35.2628 11.0079 35.9015 10.7345 36.4462 10.1879C37.0019 9.64127 37.2746 8.98796 37.2746 8.24H37.2739ZM49.1894 8.216C49.1894 9.39194 48.7637 10.4139 47.9115 11.2692C47.0593 12.1245 46.0065 12.5645 44.7524 12.5645C43.5928 12.5645 42.5754 12.1365 41.6994 11.2932C40.8241 10.4499 40.3977 9.42794 40.3977 8.228C40.3977 7.04005 40.8125 6.0181 41.6402 5.13881C42.4686 4.25952 43.486 3.8322 44.681 3.8322C46.0065 3.8322 47.0831 4.24818 47.9231 5.09148C48.7637 5.91144 49.1894 6.95672 49.1894 8.216ZM47.5681 8.24C47.5681 7.44404 47.296 6.76673 46.7519 6.22009C46.2078 5.66145 45.5332 5.38813 44.7286 5.38813C43.9716 5.38813 43.3323 5.67345 42.7998 6.24409C42.2673 6.81406 42.0068 7.46737 42.0068 8.204C42.0068 8.97663 42.2789 9.62993 42.8121 10.1766C43.3439 10.7232 44.007 11.0079 44.8116 11.0079C45.557 11.0079 46.1956 10.7345 46.7404 10.1879C47.296 9.64127 47.5687 8.98796 47.5687 8.24H47.5681ZM58.715 12.3265L57.2242 12.5525V11.1385L56.9046 11.4945C56.623 11.7531 56.304 11.9694 55.9579 12.1365C55.4499 12.3662 54.8966 12.4838 54.3372 12.4811C53.1776 12.4811 52.1833 12.0652 51.3787 11.2212C50.5741 10.3772 50.1722 9.37994 50.1722 8.216C50.1722 7.01606 50.5741 5.98277 51.3671 5.12681C52.1602 4.27085 53.13 3.84354 54.2896 3.84354C54.9527 3.84354 55.5321 3.9502 56.0171 4.16419C56.3605 4.31885 56.6564 4.52084 56.9046 4.77083C56.9876 4.87749 57.0705 4.99615 57.1535 5.10281V1.39632L58.7382 1.17033L58.715 12.3265ZM57.3188 8.32266C57.3188 7.49137 57.0345 6.79007 56.455 6.22009C55.8756 5.63745 55.224 5.3528 54.4793 5.3528C53.651 5.3528 52.9885 5.62612 52.4798 6.17276C52.0058 6.69474 51.7575 7.33671 51.7575 8.08534C51.7575 8.92863 52.0058 9.62927 52.5029 10.1759C52.9994 10.7225 53.6272 10.9959 54.3964 10.9959C55.1533 10.9959 55.8164 10.7465 56.4081 10.2359C57.0114 9.7126 57.3195 9.07129 57.3195 8.32266H57.3188ZM67.0804 2.94158H62.6434V5.89944H66.0861V7.42004H62.6434V12.3151L60.9159 12.5645V1.40832H66.7369L67.0804 2.94158ZM70.6421 2.07362L69.5771 3.39222L68.5596 2.07362L69.6362 0.767014L70.6421 2.07362ZM70.3225 12.3265L68.7371 12.5405V4.28352L70.3225 4.04619V12.3271V12.3265ZM77.4813 3.96286L76.7359 5.64945C76.638 5.63482 76.5391 5.62702 76.44 5.62612C76.2863 5.62612 76.1326 5.63812 75.9783 5.66145C75.8239 5.68478 75.6586 5.74478 75.4818 5.82811C75.1506 5.97077 74.8663 6.27942 74.618 6.74273C74.3433 7.26856 74.2011 7.85123 74.2032 8.44199V12.3151L72.6185 12.5645V4.28352L74.0855 4.0222V5.74478C74.2746 5.44746 74.4759 5.15081 74.665 4.84216C74.937 4.53284 75.2567 4.30752 75.6117 4.17619C75.8008 4.10552 76.1442 4.04553 76.6645 3.9982C77.1616 3.96286 77.4459 3.93887 77.4813 3.96286ZM89.2893 12.3265L87.704 12.5525V6.88539C87.704 6.36209 87.5857 5.9821 87.349 5.74478C87.1123 5.50679 86.7573 5.38813 86.2955 5.38813C85.7399 5.38813 85.3134 5.61412 85.0298 6.06543C84.8401 6.37408 84.734 6.70674 84.734 7.03939V12.3145L83.1486 12.5998V6.92073C83.1486 6.42208 83.0303 6.04143 82.8052 5.78078C82.5685 5.51879 82.2611 5.38813 81.8585 5.38813H81.7048C81.1484 5.38813 80.7458 5.61412 80.4976 6.07743C80.3085 6.42208 80.214 6.8614 80.214 7.39604V12.3145L78.5695 12.5998V4.28352L80.048 4.03419V5.09148C80.214 4.84149 80.3792 4.6395 80.5336 4.49751C80.9594 4.10552 81.4565 3.91487 82.0122 3.91487C82.6392 3.91487 83.1004 4.0102 83.42 4.21219C83.692 4.37885 83.9525 4.71083 84.213 5.18614C84.7571 4.34285 85.5263 3.91487 86.5444 3.91487C87.5143 3.91487 88.2365 4.21219 88.7092 4.81816C89.1003 5.3168 89.2893 6.05343 89.2893 7.01606V12.3265ZM96.5325 9.81992C96.5325 10.5799 96.2605 11.2099 95.7164 11.6972C95.1723 12.1958 94.4854 12.4338 93.657 12.4338C93.0299 12.4338 92.4736 12.2911 91.9649 12.0058C91.4562 11.7212 91.078 11.3999 90.8291 11.0199L91.9418 10.0459C92.0241 10.1646 92.0955 10.2592 92.1662 10.3306C92.5811 10.7465 93.0776 10.9605 93.657 10.9605C94.0596 10.9605 94.3793 10.8539 94.6037 10.6519C94.8404 10.4499 94.9472 10.1646 94.9472 9.79593C94.9472 9.38061 94.6751 9.09529 94.131 8.94063C93.0537 8.61998 92.4736 8.44199 92.3913 8.40599C91.8942 8.15667 91.5391 7.89535 91.314 7.59803C91.0658 7.25338 90.9359 6.80207 90.9359 6.22009C90.9359 5.50679 91.2079 4.91349 91.7405 4.43818C92.273 3.96286 92.9116 3.73688 93.6448 3.73688C94.2018 3.73688 94.7221 3.85554 95.1954 4.10552C95.6688 4.35485 96.0116 4.61617 96.2129 4.92549L95.2662 5.93477C95.124 5.79526 94.9697 5.66812 94.805 5.55479C94.4262 5.29347 94.0596 5.16281 93.7169 5.16281C93.385 5.16281 93.1129 5.23414 92.9 5.37613C92.6511 5.55479 92.5212 5.81611 92.5212 6.16076C92.5212 6.49341 92.6396 6.74273 92.8885 6.89739C93.1014 7.02805 93.5509 7.17071 94.2609 7.32471C94.9703 7.49137 95.5151 7.77669 95.9054 8.18067C96.3434 8.60798 96.5325 9.14262 96.5325 9.81992Z" fill="#0086BC"/>
</g>
<defs>
<clipPath id="clip0_6335_20306">
<rect width="95.8953" height="13.9993" fill="white" transform="translate(0.742188 0.0898438)"/>
</clipPath>
</defs>
</svg>
