<?xml version="1.0" encoding="UTF-8"?>
<!DOCTYPE svg PUBLIC "-//W3C//DTD SVG 1.1//EN" "http://www.w3.org/Graphics/SVG/1.1/DTD/svg11.dtd">
<!-- Creator: CorelDRAW -->
<svg xmlns="http://www.w3.org/2000/svg" xml:space="preserve" width="13.4478in" height="2.07305in" version="1.1" style="shape-rendering:geometricPrecision; text-rendering:geometricPrecision; image-rendering:optimizeQuality; fill-rule:evenodd; clip-rule:evenodd"
viewBox="0 0 5607 864.35"
 xmlns:xlink="http://www.w3.org/1999/xlink"
 xmlns:xodm="http://www.corel.com/coreldraw/odm/2003">
 <defs>
  <style type="text/css">
   <![CDATA[
    .fil0 {fill:#2B2A29;fill-rule:nonzero}
   ]]>
  </style>
 </defs>
 <g id="Layer_x0020_1">
  <metadata id="CorelCorpID_0Corel-Layer"/>
  <g id="_2139069491072">
   <g>
    <g>
     <g>
      <polygon class="fil0" points="-0,7.58 312.06,861.42 382.14,661.91 151.07,0 "/>
     </g>
     <g>
      <polygon class="fil0" points="503.04,0 351.97,7.58 664.04,861.42 734.12,661.91 "/>
     </g>
     <g>
      <path class="fil0" d="M1389.07 374.34c38.16,-41.12 59.75,-96.85 59.75,-155.48 0,-33.5 -6.82,-65.7 -20.27,-95.67 -30.04,-66.98 -87.13,-110.44 -156.66,-119.23 -8.18,-1.03 -16.24,-1.56 -23.94,-1.56 -2.36,0 -5.6,-0.45 -9.02,-0.93 -4.27,-0.58 -8.7,-1.21 -13.08,-1.21 -1.38,0 -2.67,0.07 -3.91,0.18l-395.22 0 -27.32 212.75c11.58,-3.89 92.41,-30.34 119.27,-19.97 4.07,1.57 9.15,11.62 -2.05,17.3 -11.21,5.69 -174.92,103.3 -69.44,190.7 11.27,3.68 108.66,40.97 152.76,-74.33 44.1,-115.3 36.82,-127.86 100.11,-123.87 69.6,4.4 78.9,55 92.72,96.43 13.81,41.42 78.06,81.81 92.46,78.84 14.4,-2.97 38.79,47.89 1.88,92.67 -36.91,44.78 -78.27,67.96 -146.63,62.19 -66.21,-5.58 -231.61,-42.07 -387.22,133.2l-5.18 16.95 -45.21 141.46 593.69 0c54.27,-0.1 105.66,-26.7 144.72,-74.88 37.32,-46.05 58.74,-107.6 58.74,-168.88 0,-88.01 -43.02,-167.17 -110.93,-206.64z"/>
     </g>
     <g>
      <path class="fil0" d="M1147.35 311.78c0.92,-7.67 -4.57,-14.64 -12.24,-15.55 -7.68,-0.91 -14.64,4.58 -15.54,12.25 -0.92,7.66 4.57,14.63 12.24,15.54 7.68,0.92 14.64,-4.58 15.55,-12.24z"/>
     </g>
    </g>
   </g>
   <g>
    <g>
     <polygon class="fil0" points="1770.64,793 1703.93,690.6 1703.93,690.36 1719.32,690.36 1777.23,780.28 1835.39,690.36 1850.79,690.36 1850.79,690.6 1783.84,793 1783.84,861.42 1770.64,861.42 "/>
     <path class="fil0" d="M2094.69 776.13c-0.25,44.96 -28.84,88.22 -86.26,88.22 -57.43,0 -86.27,-43.5 -86.27,-88.71 0,-45.94 28.59,-87.97 86.27,-87.97 57.67,0 86.5,42.27 86.26,88.46zm-159.58 -0.25l0 0c0.24,38.61 24.69,76.24 73.32,76.24 48.87,0 73.55,-37.63 73.55,-76.24 0,-39.59 -24.44,-75.99 -73.55,-75.99 -49.12,0 -73.56,35.68 -73.32,75.99z"/>
     <path class="fil0" d="M2311.7 690.36l0 106.3c0,89.44 -130.98,89.69 -130.98,0l0 -106.3 12.95 0 0 106.3c0,73.56 105.08,73.32 105.08,0l0 -106.3 12.95 0z"/>
     <path class="fil0" d="M2538.97 861.42l-17.35 0 -59.14 -64.76 -46.67 0 0 64.76 -13.2 0 0 -171.06c25.17,0 50.1,0 75.27,0 37.14,0 55.96,26.64 56.21,53.27 0.24,27.86 -18.08,52.3 -55.47,52.3l60.35 65.49zm-123.16 -77.22l0 0 60.6 0c29.81,0 43.01,-16.86 43.26,-40.81 0.24,-20.04 -13.44,-40.81 -41.78,-40.81l-62.07 0 0 81.62z"/>
     <path class="fil0" d="M2881.12 773.93c0.97,43.5 -26.88,87.49 -86.76,87.49 -19.31,0 -38.62,0 -57.92,0l0 -171.06c19.31,0 38.61,0 57.92,0 57.91,0 85.77,41.54 86.76,83.57zm-131.48 -71.11l0 0 0 145.89 44.73 0c50.82,0 74.29,-38.13 73.56,-74.78 -0.74,-35.67 -24.19,-71.11 -73.56,-71.11l-44.73 0z"/>
     <polygon class="fil0" points="2968.61,861.42 2968.61,690.36 2981.57,690.36 2981.57,861.42 "/>
     <path class="fil0" d="M3208.59 721.88c-14.91,-14.66 -35.68,-21.99 -54.99,-21.99 -50.09,0 -75.74,36.65 -75.51,76.24 0,40.32 25.66,75.03 75.51,75.03 18.33,0 37.39,-6.36 52.06,-19.8l0 -47.89 -59.63 0 0 -11.48 72.09 0 0 64.02c-17.85,17.84 -39.1,27.62 -64.53,27.62 -58.16,0 -88.21,-40.57 -88.21,-87.24 -0.25,-53.53 36.16,-88.48 88.21,-88.48 22.49,0 45.22,8.56 62.57,25.67l-7.58 8.3z"/>
     <polygon class="fil0" points="3308.79,861.42 3308.79,690.36 3321.75,690.36 3321.75,861.42 "/>
     <polygon class="fil0" points="3470.57,702.33 3408.75,702.33 3408.75,690.6 3545.59,690.6 3545.59,702.33 3483.77,702.33 3483.77,861.42 3470.57,861.42 "/>
     <path class="fil0" d="M3761.38 861.42l-18.82 -42.04 -102.14 0 -18.57 42.04 -14.18 0 76.74 -171.06 14.42 0 76.73 171.06 -14.17 0zm-23.95 -54.25l0 0 -45.94 -104.11 -45.94 104.11 91.89 0z"/>
     <polygon class="fil0" points="3867.94,690.36 3867.94,848.95 3964.22,848.95 3964.22,861.42 3854.74,861.42 3854.74,690.36 "/>
     <path class="fil0" d="M4179.04 802.28l0 59.14 -13.2 0 0 -171.06c24.92,0 50.09,0 75.01,0 74.3,0 74.3,111.93 0,111.93l-61.81 0zm0 -99.71l0 0 0 87.73 61.81 0c56.95,0 56.95,-87.73 0,-87.73l-61.81 0z"/>
     <path class="fil0" d="M4516.52 861.42l-18.81 -42.04 -102.16 0 -18.57 42.04 -14.17 0 76.74 -171.06 14.41 0 76.74 171.06 -14.18 0zm-23.94 -54.25l0 0 -45.94 -104.11 -45.94 104.11 91.89 0z"/>
     <path class="fil0" d="M4743.8 861.42l-17.36 0 -59.13 -64.76 -46.68 0 0 64.76 -13.2 0 0 -171.06c25.17,0 50.09,0 75.27,0 37.14,0 55.95,26.64 56.2,53.27 0.25,27.86 -18.08,52.3 -55.47,52.3l60.36 65.49zm-123.17 -77.22l0 0 60.61 0c29.8,0 43,-16.86 43.25,-40.81 0.24,-20.04 -13.45,-40.81 -41.79,-40.81l-62.07 0 0 81.62z"/>
     <polygon class="fil0" points="4876.74,702.33 4814.91,702.33 4814.91,690.6 4951.76,690.6 4951.76,702.33 4889.94,702.33 4889.94,861.42 4876.74,861.42 "/>
     <polygon class="fil0" points="5037.3,690.36 5152.41,831.85 5152.41,690.36 5165.36,690.36 5165.36,861.42 5160.22,861.42 5044.88,720.17 5044.88,861.42 5031.68,861.42 5031.68,690.36 "/>
     <polygon class="fil0" points="5271.18,769.29 5371.38,769.29 5371.38,781.26 5271.18,781.26 5271.18,848.71 5379.19,848.71 5379.19,861.42 5258.23,861.42 5258.23,690.36 5376.25,690.36 5376.25,702.82 5271.18,702.82 "/>
     <path class="fil0" d="M5599.62 861.42l-17.35 0 -59.13 -64.76 -46.68 0 0 64.76 -13.2 0 0 -171.06c25.18,0 50.09,0 75.27,0 37.14,0 55.96,26.64 56.21,53.27 0.24,27.86 -18.1,52.3 -55.49,52.3l60.37 65.49zm-123.16 -77.22l0 0 60.6 0c29.81,0 43.01,-16.86 43.25,-40.81 0.25,-20.04 -13.44,-40.81 -41.78,-40.81l-62.07 0 0 81.62z"/>
    </g>
    <g>
     <g>
      <path class="fil0" d="M2851.82 145.85l-50.31 0 0 67.83 50.31 0 0 242.11c0,61.75 33.3,92.62 99.92,92.62 22.85,0 42.54,-2.68 59.06,-8.03l0 -71.46c-10.2,1.46 -17.98,2.19 -23.32,2.19 -13.62,0 -22.62,-2.79 -26.99,-8.39 -4.38,-5.58 -6.57,-17.13 -6.57,-34.63l0 -214.41 56.88 0 0 -67.83 -56.88 0 -102.1 0zm-174.29 385.79l0 0 102.09 0 0 -393.8 -102.09 0 0 393.8zm275.24 -531.64l0 0 -100.95 0 0 114.29c108.45,-0.83 100.95,-114.29 100.95,-114.29zm2248.13 0l0 0 -100.95 0 0 114.29c108.45,-0.83 100.95,-114.29 100.95,-114.29zm-2422.42 0l0 0 -100.94 0 0 114.29c108.45,-0.83 100.94,-114.29 100.94,-114.29zm-693.11 413.5l0 0 -59.08 -275.67 -102.09 0 -59.81 275.67 -62.72 -275.67 -145.17 0 46.45 24.96 103.83 368.84 105.01 0 62.72 -277.85 59.07 277.85 105.75 0 111.58 -393.8 -105.75 0 -59.79 275.67zm488.98 -255.62l0 0c-13.38,-9.48 -26.99,-16.28 -40.84,-20.42 -13.87,-4.12 -28.57,-6.2 -44.12,-6.2 -48.62,0 -87.04,21.14 -115.23,63.45l0 -194.71 -141.52 0 39.43 24.96 0 506.68 102.09 0 0 -236.28c0,-22.35 7.41,-40.83 22.25,-55.42 14.83,-14.59 33.66,-21.88 56.51,-21.88 41.81,0 62.72,24.32 62.72,72.93l0 240.65 102.1 0 0 -263.99c0,-25.77 -3.9,-48.14 -11.67,-67.1 -7.78,-18.96 -18.36,-33.18 -31.72,-42.66zm2333.27 -26.62l0 0c-50.57,0 -89.95,21.14 -118.13,63.45l0 -56.88 -141.53 0 39.43 24.96 0 368.84 102.1 0 0 -236.28c0,-23.33 7.53,-42.04 22.61,-56.14 15.05,-14.1 35,-21.16 59.8,-21.16 43.76,0 65.63,23.59 65.63,70.74l0 242.85 102.1 0 0 -263.99c0,-43.27 -11.56,-76.81 -34.64,-100.64 -23.1,-23.82 -55.55,-35.74 -97.36,-35.74zm191.8 400.37l0 0 102.1 0 0 -393.8 -102.1 0 0 393.8zm507.59 -182.31l0 0c0,-33.55 -3.91,-63.33 -11.67,-89.34 -7.79,-26 -17.88,-46.91 -30.27,-62.71 -12.4,-15.8 -26.99,-28.81 -43.77,-39.02 -16.76,-10.21 -33.17,-17.25 -49.21,-21.14 -16.05,-3.89 -32.59,-5.84 -49.59,-5.84 -56.42,0 -100.9,19.09 -133.46,57.25 -32.57,38.17 -48.86,90.32 -48.86,156.43 0,63.2 16.05,112.92 48.13,149.14 32.1,36.22 76.08,54.32 132,54.32 44.23,0 82.88,-11.55 115.95,-34.63 33.05,-23.09 55.17,-54.08 66.36,-92.98l-100.63 0c-13.14,33.07 -39.14,49.58 -78.04,49.58 -16.52,0 -30.25,-2.78 -41.2,-8.39 -10.94,-5.58 -19.2,-13.61 -24.79,-24.06 -5.6,-10.45 -9.48,-21.15 -11.67,-32.09 -2.18,-10.94 -3.53,-23.94 -4,-39.02l263.98 0c0.49,-5.82 0.75,-11.65 0.75,-17.49zm-263.27 -50.32l0 0c6.8,-59.8 32.56,-89.7 77.31,-89.7 23.81,0 42.4,7.78 55.78,23.33 13.37,15.57 21.26,37.69 23.7,66.37l-156.78 0zm-845.23 -167.74l0 0c-50.57,0 -89.94,21.14 -118.14,63.45l0 -56.88 -141.53 0 39.43 24.96 0 368.84 102.1 0 0 -236.28c0,-23.33 7.53,-42.04 22.61,-56.14 15.05,-14.1 35,-21.16 59.8,-21.16 43.76,0 65.63,23.59 65.63,70.74l0 242.85 102.1 0 0 -263.99c0,-43.27 -11.56,-76.81 -34.64,-100.64 -23.1,-23.82 -55.56,-35.74 -97.36,-35.74zm-852.51 0l0 0c-48.11,0 -84.34,19.22 -108.66,57.62l0 -188.88 -141.52 0 39.43 24.96 0 506.68 102.09 0 0 -40.11c24.32,37.93 60.54,56.89 108.66,56.89 47.16,0 86.54,-19.93 118.16,-59.8 31.59,-39.86 47.39,-89.44 47.39,-148.77 0,-60.77 -15.8,-110.72 -47.39,-149.86 -31.62,-39.13 -71,-58.71 -118.16,-58.71zm39.39 297.55l0 0c-16.05,22.85 -36.71,34.27 -61.99,34.27 -25.78,0 -46.55,-11.42 -62.34,-34.27 -15.81,-22.85 -23.72,-52.99 -23.72,-90.44 0,-35.97 8.03,-65.27 24.07,-87.87 16.05,-22.61 36.7,-33.91 61.99,-33.91 25.28,0 45.94,11.55 61.99,34.64 16.04,23.1 24.06,52.87 24.06,89.34 0,35.98 -8.02,65.4 -24.06,88.24zm415.68 -44.49l0 0c0,23.34 -7.54,42.06 -22.61,56.15 -15.08,14.11 -35.01,21.14 -59.81,21.14 -43.75,0 -65.63,-23.58 -65.63,-70.73l0 -253.06 -141.52 0 39.43 24.96 0 249.25c0,43.28 11.54,76.82 34.63,100.63 23.08,23.82 55.55,35.74 97.36,35.74 50.57,0 89.94,-21.15 118.15,-63.44l0 46.67 102.09 0 0 -393.8 -102.09 0 0 246.49zm-751.51 -187.05l0 0c-12.4,-15.8 -26.99,-28.81 -43.76,-39.02 -16.77,-10.21 -33.17,-17.25 -49.22,-21.14 -16.05,-3.89 -32.59,-5.84 -49.59,-5.84 -56.42,0 -100.9,19.09 -133.46,57.25 -32.57,38.17 -48.86,90.32 -48.86,156.43 0,63.2 16.05,112.92 48.13,149.14 32.1,36.22 76.1,54.32 132,54.32 44.24,0 82.88,-11.55 115.95,-34.63 33.05,-23.09 55.17,-54.08 66.37,-92.98l-100.64 0c-13.13,33.07 -39.15,49.58 -78.03,49.58 -16.54,0 -30.27,-2.78 -41.22,-8.39 -10.94,-5.58 -19.21,-13.61 -24.79,-24.06 -5.6,-10.45 -9.48,-21.15 -11.66,-32.09 -2.19,-10.94 -3.54,-23.94 -4.02,-39.02l264 0c0.47,-5.82 0.74,-11.65 0.74,-17.49 0,-33.55 -3.9,-63.33 -11.67,-89.34 -7.78,-26 -17.87,-46.91 -30.27,-62.71zm-221.33 101.73l0 0c6.8,-59.8 32.56,-89.7 77.31,-89.7 23.81,0 42.4,7.78 55.78,23.33 13.37,15.57 21.26,37.69 23.71,66.37l-156.79 0z"/>
     </g>
    </g>
   </g>
  </g>
 </g>
</svg>
